<?xml version="1.0" encoding="UTF-8"?>
<!DOCTYPE svg PUBLIC "-//W3C//DTD SVG 1.1//EN" "http://www.w3.org/Graphics/SVG/1.1/DTD/svg11.dtd">
<svg xmlns="http://www.w3.org/2000/svg" version="1.1" width="500px" height="500px" style="shape-rendering:geometricPrecision; text-rendering:geometricPrecision; image-rendering:optimizeQuality; fill-rule:evenodd; clip-rule:evenodd" xmlns:xlink="http://www.w3.org/1999/xlink">
<g><path style="opacity:1" fill="#ffdd58" d="M -0.5,-0.5 C 166.167,-0.5 332.833,-0.5 499.5,-0.5C 499.5,166.167 499.5,332.833 499.5,499.5C 332.833,499.5 166.167,499.5 -0.5,499.5C -0.5,332.833 -0.5,166.167 -0.5,-0.5 Z"/></g>
<g><path style="opacity:1" fill="#fed759" d="M 365.5,153.5 C 361.486,153.334 357.486,153.501 353.5,154C 353.833,154.333 354.167,154.667 354.5,155C 361.555,156.348 368.555,157.848 375.5,159.5C 375.261,161.467 375.594,163.301 376.5,165C 380.616,165.325 384.616,166.159 388.5,167.5C 388,167.833 387.5,168.167 387,168.5C 383.614,167.913 380.28,167.246 377,166.5C 376.536,167.094 376.369,167.761 376.5,168.5C 370.189,167.573 363.856,167.406 357.5,168C 358.94,172.028 359.94,176.195 360.5,180.5C 360.291,181.994 359.624,183.161 358.5,184C 361.029,185.062 363.696,185.895 366.5,186.5C 364.955,187.452 363.288,187.785 361.5,187.5C 361.5,188.833 361.5,190.167 361.5,191.5C 353.321,176.821 342.988,163.821 330.5,152.5C 329.486,148.987 327.819,145.82 325.5,143C 326.376,139.132 324.709,136.799 320.5,136C 315.521,130.689 310.187,125.689 304.5,121C 292.946,116.057 281.279,111.39 269.5,107C 258.978,104.229 248.311,102.229 237.5,101C 198.197,97.5333 159.197,99.5333 120.5,107C 103.583,111.129 87.9158,117.962 73.5,127.5C 41.9205,160.729 28.0872,200.396 32,246.5C 33.0096,258.548 35.6762,270.215 40,281.5C 44.9391,291.045 49.6058,300.711 54,310.5C 58.9071,316.078 64.4071,320.911 70.5,325C 82.7035,329.932 95.0368,334.599 107.5,339C 108.973,339.71 109.64,340.876 109.5,342.5C 111.401,342.433 113.234,342.767 115,343.5C 118.031,340.836 120.531,341.336 122.5,345C 126.665,345.159 130.165,346.659 133,349.5C 135.157,346.673 136.99,346.84 138.5,350C 141.167,350.333 143.833,350.667 146.5,351C 148.365,353.858 150.532,356.358 153,358.5C 153.5,358.333 154,358.167 154.5,358C 152.595,356.185 150.928,354.185 149.5,352C 150,351.833 150.5,351.667 151,351.5C 153.532,354.032 156.032,356.532 158.5,359C 166.779,360.796 167.946,359.296 162,354.5C 161.333,353.833 161.333,353.167 162,352.5C 164.391,355.597 167.224,357.763 170.5,359C 169.5,358 168.5,357 167.5,356C 170.265,356.72 172.599,358.387 174.5,361C 176.5,361 178.5,361 180.5,361C 180.167,361.333 179.833,361.667 179.5,362C 182.978,363.24 186.311,364.74 189.5,366.5C 189.918,367.222 190.584,367.722 191.5,368C 189.167,368.667 186.833,368.667 184.5,368C 181.399,366.034 178.232,364.2 175,362.5C 174.5,362.667 174,362.833 173.5,363C 175.208,365.043 177.208,366.71 179.5,368C 175.5,368.333 171.5,368.667 167.5,369C 175.809,376.318 185.142,381.818 195.5,385.5C 194.448,385.351 193.448,385.517 192.5,386C 202.698,389.466 213.031,392.466 223.5,395C 211.02,394.213 199.02,391.213 187.5,386C 181.833,385.667 176.167,385.333 170.5,385C 167.833,383 165.167,381 162.5,379C 160.285,377.956 157.952,377.29 155.5,377C 151.917,372.91 147.917,369.41 143.5,366.5C 142.833,366.667 142.167,366.833 141.5,367C 144.336,370.667 147.336,374.167 150.5,377.5C 146.51,377.001 142.51,376.501 138.5,376C 136.328,371.212 132.661,369.212 127.5,370C 128.5,371.667 129.5,373.333 130.5,375C 127.442,375.458 124.442,375.124 121.5,374C 120.527,371.365 118.86,369.365 116.5,368C 89.7809,364.768 65.7809,355.101 44.5,339C 21.9466,317.387 9.44663,290.887 7,259.5C 4.20974,223.488 8.8764,188.488 21,154.5C 37.3326,114.908 66.4993,90.7413 108.5,82C 139.539,76.0921 170.872,73.2588 202.5,73.5C 230.573,73.2789 258.239,76.4456 285.5,83C 315.735,91.0811 338.068,108.914 352.5,136.5C 355.167,137.167 357.833,137.833 360.5,138.5C 361.074,140.059 361.74,141.559 362.5,143C 360.167,143.333 357.833,143.667 355.5,144C 356.337,145.011 356.67,146.178 356.5,147.5C 362.076,146.006 365.076,148.006 365.5,153.5 Z"/></g>
<g><path style="opacity:1" fill="#fed15b" d="M 330.5,152.5 C 322.675,146.418 314.342,141.085 305.5,136.5C 305.586,135.504 305.252,134.671 304.5,134C 302.156,133.163 300.156,131.829 298.5,130C 267.002,118.956 234.502,113.79 201,114.5C 168.646,114.946 136.813,118.113 105.5,124C 93.578,126.375 83.7446,132.209 76,141.5C 43.5016,192.445 38.5016,245.779 61,301.5C 64.8333,305.333 68.6667,309.167 72.5,313C 77.5506,315.908 82.884,318.242 88.5,320C 97.0605,320.307 104.727,322.807 111.5,327.5C 112.192,326.975 112.692,326.308 113,325.5C 117.019,327.046 121.185,328.046 125.5,328.5C 125.275,330.716 126.108,332.383 128,333.5C 129.425,328.422 130.925,328.588 132.5,334C 134.81,334.497 137.143,334.663 139.5,334.5C 139.222,336.346 139.889,337.68 141.5,338.5C 142.506,338.062 142.506,337.396 141.5,336.5C 142.5,336.167 143.5,335.833 144.5,335.5C 146.846,336.5 149.013,337.833 151,339.5C 151.5,339.333 152,339.167 152.5,339C 151.549,338.282 151.383,337.449 152,336.5C 153.857,338.518 156.024,340.185 158.5,341.5C 159.696,341.154 159.696,340.654 158.5,340C 159.094,339.536 159.761,339.369 160.5,339.5C 173.577,351.369 188.243,360.703 204.5,367.5C 202.453,367.511 200.453,367.844 198.5,368.5C 195.521,367.672 192.521,367.005 189.5,366.5C 186.311,364.74 182.978,363.24 179.5,362C 179.833,361.667 180.167,361.333 180.5,361C 178.5,361 176.5,361 174.5,361C 172.599,358.387 170.265,356.72 167.5,356C 168.5,357 169.5,358 170.5,359C 167.224,357.763 164.391,355.597 162,352.5C 161.333,353.167 161.333,353.833 162,354.5C 167.946,359.296 166.779,360.796 158.5,359C 156.032,356.532 153.532,354.032 151,351.5C 150.5,351.667 150,351.833 149.5,352C 150.928,354.185 152.595,356.185 154.5,358C 154,358.167 153.5,358.333 153,358.5C 150.532,356.358 148.365,353.858 146.5,351C 143.833,350.667 141.167,350.333 138.5,350C 136.99,346.84 135.157,346.673 133,349.5C 130.165,346.659 126.665,345.159 122.5,345C 120.531,341.336 118.031,340.836 115,343.5C 113.234,342.767 111.401,342.433 109.5,342.5C 109.64,340.876 108.973,339.71 107.5,339C 95.0368,334.599 82.7035,329.932 70.5,325C 64.4071,320.911 58.9071,316.078 54,310.5C 49.6058,300.711 44.9391,291.045 40,281.5C 35.6762,270.215 33.0096,258.548 32,246.5C 28.0872,200.396 41.9205,160.729 73.5,127.5C 87.9158,117.962 103.583,111.129 120.5,107C 159.197,99.5333 198.197,97.5333 237.5,101C 248.311,102.229 258.978,104.229 269.5,107C 281.279,111.39 292.946,116.057 304.5,121C 310.187,125.689 315.521,130.689 320.5,136C 324.709,136.799 326.376,139.132 325.5,143C 327.819,145.82 329.486,148.987 330.5,152.5 Z"/></g>
<g><path style="opacity:1" fill="#feca5d" d="M 305.5,136.5 C 278.99,124.394 251.323,120.728 222.5,125.5C 199.645,122.064 176.979,122.897 154.5,128C 144.256,128.819 134.09,128.652 124,127.5C 117.963,129.146 111.797,130.313 105.5,131C 99.8954,132.755 94.562,135.089 89.5,138C 85.2984,141.867 81.4651,146.033 78,150.5C 70.1935,164.481 64.8602,179.481 62,195.5C 57.6296,219.499 56.2963,243.499 58,267.5C 58.3757,281.563 63.209,293.73 72.5,304C 76.2608,306.765 80.2608,309.098 84.5,311C 93.2248,312.645 101.891,314.478 110.5,316.5C 111.442,316.392 112.275,316.059 113,315.5C 120.692,318.385 127.859,320.719 134.5,322.5C 135.672,322.081 136.672,321.415 137.5,320.5C 139.576,321.956 141.743,323.289 144,324.5C 145.011,323.944 145.844,323.278 146.5,322.5C 149.6,326.356 152.933,330.023 156.5,333.5C 157.833,335.5 159.167,337.5 160.5,339.5C 159.761,339.369 159.094,339.536 158.5,340C 159.696,340.654 159.696,341.154 158.5,341.5C 156.024,340.185 153.857,338.518 152,336.5C 151.383,337.449 151.549,338.282 152.5,339C 152,339.167 151.5,339.333 151,339.5C 149.013,337.833 146.846,336.5 144.5,335.5C 143.5,335.833 142.5,336.167 141.5,336.5C 142.506,337.396 142.506,338.062 141.5,338.5C 139.889,337.68 139.222,336.346 139.5,334.5C 137.143,334.663 134.81,334.497 132.5,334C 130.925,328.588 129.425,328.422 128,333.5C 126.108,332.383 125.275,330.716 125.5,328.5C 121.185,328.046 117.019,327.046 113,325.5C 112.692,326.308 112.192,326.975 111.5,327.5C 104.727,322.807 97.0605,320.307 88.5,320C 82.884,318.242 77.5506,315.908 72.5,313C 68.6667,309.167 64.8333,305.333 61,301.5C 38.5016,245.779 43.5016,192.445 76,141.5C 83.7446,132.209 93.578,126.375 105.5,124C 136.813,118.113 168.646,114.946 201,114.5C 234.502,113.79 267.002,118.956 298.5,130C 300.156,131.829 302.156,133.163 304.5,134C 305.252,134.671 305.586,135.504 305.5,136.5 Z"/></g>
<g><path style="opacity:1" fill="#fec45f" d="M 222.5,125.5 C 222.5,125.833 222.5,126.167 222.5,126.5C 217.112,127.63 211.778,128.963 206.5,130.5C 205.048,129.698 203.382,129.198 201.5,129C 194.5,128.333 187.5,128.333 180.5,129C 169.155,131.215 157.822,133.382 146.5,135.5C 139.569,134.872 132.735,133.872 126,132.5C 100.671,130.476 83.6714,141.476 75,165.5C 65.3753,198.526 60.8753,231.859 61.5,265.5C 63.4447,298.61 80.9447,313.61 114,310.5C 117.316,311.062 120.483,312.062 123.5,313.5C 124.167,313.167 124.833,312.833 125.5,312.5C 127.836,314.8 130.67,316.133 134,316.5C 134.95,315.978 135.784,315.311 136.5,314.5C 138.415,316.472 140.749,317.472 143.5,317.5C 144.752,319.001 145.752,320.668 146.5,322.5C 145.844,323.278 145.011,323.944 144,324.5C 141.743,323.289 139.576,321.956 137.5,320.5C 136.672,321.415 135.672,322.081 134.5,322.5C 127.859,320.719 120.692,318.385 113,315.5C 112.275,316.059 111.442,316.392 110.5,316.5C 101.891,314.478 93.2248,312.645 84.5,311C 80.2608,309.098 76.2608,306.765 72.5,304C 63.209,293.73 58.3757,281.563 58,267.5C 56.2963,243.499 57.6296,219.499 62,195.5C 64.8602,179.481 70.1935,164.481 78,150.5C 81.4651,146.033 85.2984,141.867 89.5,138C 94.562,135.089 99.8954,132.755 105.5,131C 111.797,130.313 117.963,129.146 124,127.5C 134.09,128.652 144.256,128.819 154.5,128C 176.979,122.897 199.645,122.064 222.5,125.5 Z"/></g>
<g><path style="opacity:1" fill="#93215f" d="M 305.5,136.5 C 314.342,141.085 322.675,146.418 330.5,152.5C 342.988,163.821 353.321,176.821 361.5,191.5C 363.06,193.954 364.06,196.62 364.5,199.5C 350.413,199.061 336.413,199.727 322.5,201.5C 320.346,200.253 318.346,199.419 316.5,199C 317.472,196.889 318.305,194.722 319,192.5C 319.308,193.308 319.808,193.975 320.5,194.5C 321.776,189.318 322.443,189.318 322.5,194.5C 323.675,194.719 324.675,194.386 325.5,193.5C 324.41,192.391 324.41,191.391 325.5,190.5C 326.251,191.376 326.751,192.376 327,193.5C 327.497,191.19 327.663,188.857 327.5,186.5C 326.5,186.5 325.5,186.5 324.5,186.5C 324.5,185.167 324.5,183.833 324.5,182.5C 322.801,182.66 321.134,182.494 319.5,182C 320.38,180.644 320.714,179.144 320.5,177.5C 319.127,177.657 317.793,177.49 316.5,177C 317.428,176.612 318.095,175.945 318.5,175C 316.88,171.52 315.88,167.853 315.5,164C 315.164,162.97 314.497,162.47 313.5,162.5C 311.152,150.648 304.485,142.148 293.5,137C 293.833,136.667 294.167,136.333 294.5,136C 291.456,135.641 291.122,134.974 293.5,134C 291.757,132.365 289.923,132.198 288,133.5C 287.955,132.077 286.789,131.077 284.5,130.5C 282.568,131.52 280.568,131.687 278.5,131C 282.414,130.103 282.248,129.603 278,129.5C 272.807,130.72 267.64,130.554 262.5,129C 263.696,128.346 263.696,127.846 262.5,127.5C 260.727,128.087 258.894,128.42 257,128.5C 245.549,126.986 234.049,126.319 222.5,126.5C 222.5,126.167 222.5,125.833 222.5,125.5C 251.323,120.728 278.99,124.394 305.5,136.5 Z"/></g>
<g><path style="opacity:1" fill="#981b64" d="M 222.5,126.5 C 234.049,126.319 245.549,126.986 257,128.5C 258.894,128.42 260.727,128.087 262.5,127.5C 263.696,127.846 263.696,128.346 262.5,129C 267.64,130.554 272.807,130.72 278,129.5C 282.248,129.603 282.414,130.103 278.5,131C 280.568,131.687 282.568,131.52 284.5,130.5C 286.789,131.077 287.955,132.077 288,133.5C 289.923,132.198 291.757,132.365 293.5,134C 291.122,134.974 291.456,135.641 294.5,136C 294.167,136.333 293.833,136.667 293.5,137C 304.485,142.148 311.152,150.648 313.5,162.5C 313.65,166.161 312.15,167.161 309,165.5C 308.503,167.81 308.337,170.143 308.5,172.5C 307.759,163.057 304.092,154.891 297.5,148C 293.294,145.398 288.961,143.064 284.5,141C 270.357,139.355 256.19,137.855 242,136.5C 227.701,138.224 213.535,137.557 199.5,134.5C 200.167,133.833 200.833,133.167 201.5,132.5C 203.403,132.204 205.07,131.537 206.5,130.5C 211.778,128.963 217.112,127.63 222.5,126.5 Z"/></g>
<g><path style="opacity:1" fill="#febe60" d="M 206.5,130.5 C 205.07,131.537 203.403,132.204 201.5,132.5C 200.5,132.5 199.5,132.5 198.5,132.5C 196.866,131.839 195.033,131.506 193,131.5C 186.506,132.071 180.006,132.571 173.5,133C 165.312,135.508 157.146,138.008 149,140.5C 138.566,138.567 128.066,136.9 117.5,135.5C 106.009,136.268 96.1754,140.601 88,148.5C 84.1452,154.21 80.8119,160.21 78,166.5C 68.064,200.788 64.064,235.788 66,271.5C 68.1844,295.036 80.851,306.37 104,305.5C 104.667,306.167 105.333,306.833 106,307.5C 111.557,305.581 117.057,306.247 122.5,309.5C 123.167,309.167 123.833,308.833 124.5,308.5C 129.9,310.594 135.234,311.927 140.5,312.5C 141.248,314.332 142.248,315.999 143.5,317.5C 140.749,317.472 138.415,316.472 136.5,314.5C 135.784,315.311 134.95,315.978 134,316.5C 130.67,316.133 127.836,314.8 125.5,312.5C 124.833,312.833 124.167,313.167 123.5,313.5C 120.483,312.062 117.316,311.062 114,310.5C 80.9447,313.61 63.4447,298.61 61.5,265.5C 60.8753,231.859 65.3753,198.526 75,165.5C 83.6714,141.476 100.671,130.476 126,132.5C 132.735,133.872 139.569,134.872 146.5,135.5C 157.822,133.382 169.155,131.215 180.5,129C 187.5,128.333 194.5,128.333 201.5,129C 203.382,129.198 205.048,129.698 206.5,130.5 Z"/></g>
<g><path style="opacity:1" fill="#feb264" d="M 198.5,132.5 C 199.5,132.5 200.5,132.5 201.5,132.5C 200.833,133.167 200.167,133.833 199.5,134.5C 196.406,135.213 193.406,136.213 190.5,137.5C 185.464,137.588 180.464,138.088 175.5,139C 166.49,142.174 157.49,145.34 148.5,148.5C 140.173,146.338 131.839,144.171 123.5,142C 109.853,139.878 98.686,144.045 90,154.5C 82.7431,167.18 78.4098,180.847 77,195.5C 72.2523,221.245 70.2523,246.912 71,272.5C 72.3329,279.498 74.6663,286.165 78,292.5C 79.9384,295.106 82.4384,296.939 85.5,298C 96.1996,299.622 106.866,300.289 117.5,300C 123.445,301.491 129.445,302.657 135.5,303.5C 136.674,304.514 137.34,305.847 137.5,307.5C 121.447,304.646 104.781,302.479 87.5,301C 79.763,298.93 74.5963,294.097 72,286.5C 67.752,274.527 66.4186,262.194 68,249.5C 69.2277,225.244 72.2277,201.244 77,177.5C 79.8229,166.687 84.6562,156.854 91.5,148C 103.187,139.437 116.187,136.771 130.5,140C 135.814,141.605 141.148,143.105 146.5,144.5C 154.802,142.124 163.136,139.624 171.5,137C 180.722,135.891 189.722,134.391 198.5,132.5 Z"/></g>
<g><path style="opacity:1" fill="#a11868" d="M 199.5,134.5 C 213.535,137.557 227.701,138.224 242,136.5C 256.19,137.855 270.357,139.355 284.5,141C 288.961,143.064 293.294,145.398 297.5,148C 304.092,154.891 307.759,163.057 308.5,172.5C 308.665,175.518 308.498,178.518 308,181.5C 307.667,181.167 307.333,180.833 307,180.5C 306.508,181.549 306.674,182.549 307.5,183.5C 304.972,184.816 304.972,185.983 307.5,187C 306.437,188.188 305.103,188.688 303.5,188.5C 303.5,189.833 303.5,191.167 303.5,192.5C 301.801,192.527 300.467,193.194 299.5,194.5C 299.445,188.861 299.445,182.861 299.5,176.5C 298.269,171.128 297.936,165.795 298.5,160.5C 298.372,156.627 297.039,153.294 294.5,150.5C 278.364,149.04 262.198,147.707 246,146.5C 238.656,147.046 231.322,147.713 224,148.5C 210.823,145.404 197.656,143.07 184.5,141.5C 185.71,141.068 186.71,140.401 187.5,139.5C 188.71,139.068 189.71,138.401 190.5,137.5C 193.406,136.213 196.406,135.213 199.5,134.5 Z"/></g>
<g><path style="opacity:1" fill="#feaa66" d="M 190.5,137.5 C 189.71,138.401 188.71,139.068 187.5,139.5C 175.745,140.697 164.745,144.197 154.5,150C 152,150.5 149.5,151 147,151.5C 140.261,150.047 133.761,147.88 127.5,145C 118.623,142.727 109.956,143.393 101.5,147C 98.0731,148.431 95.2398,150.598 93,153.5C 88.3027,160.562 84.9694,168.229 83,176.5C 76.1907,207.618 72.8574,238.952 73,270.5C 73.6408,276.474 75.4741,281.807 78.5,286.5C 78.3284,287.492 78.6618,288.158 79.5,288.5C 79.7286,290.433 80.5619,292.1 82,293.5C 82.6708,294.252 83.5041,294.586 84.5,294.5C 84.9175,295.222 85.5842,295.722 86.5,296C 95.2463,297.21 103.746,296.377 112,293.5C 119.162,295.278 126.329,296.945 133.5,298.5C 134.441,300.05 135.107,301.716 135.5,303.5C 129.445,302.657 123.445,301.491 117.5,300C 106.866,300.289 96.1996,299.622 85.5,298C 82.4384,296.939 79.9384,295.106 78,292.5C 74.6663,286.165 72.3329,279.498 71,272.5C 70.2523,246.912 72.2523,221.245 77,195.5C 78.4098,180.847 82.7431,167.18 90,154.5C 98.686,144.045 109.853,139.878 123.5,142C 131.839,144.171 140.173,146.338 148.5,148.5C 157.49,145.34 166.49,142.174 175.5,139C 180.464,138.088 185.464,137.588 190.5,137.5 Z"/></g>
<g><path style="opacity:1" fill="#b1156f" d="M 184.5,141.5 C 197.656,143.07 210.823,145.404 224,148.5C 231.322,147.713 238.656,147.046 246,146.5C 262.198,147.707 278.364,149.04 294.5,150.5C 297.039,153.294 298.372,156.627 298.5,160.5C 297.936,165.795 298.269,171.128 299.5,176.5C 299.445,182.861 299.445,188.861 299.5,194.5C 299.631,195.376 299.298,196.043 298.5,196.5C 296.205,197.432 293.871,198.265 291.5,199C 294.051,200.516 293.718,201.349 290.5,201.5C 288.16,202.086 285.993,203.086 284,204.5C 283.517,203.552 283.351,202.552 283.5,201.5C 284.71,194.856 287.71,189.189 292.5,184.5C 292.167,183.833 291.833,183.167 291.5,182.5C 295.556,173.635 297.056,164.302 296,154.5C 295.167,153.667 294.333,152.833 293.5,152C 287.167,151.333 280.833,151.333 274.5,152C 271.299,155.862 267.466,159.028 263,161.5C 259.947,159.57 257.447,157.07 255.5,154C 249.098,151.57 242.432,150.904 235.5,152C 231.98,155.853 228.147,159.353 224,162.5C 215.831,158.409 207.664,154.242 199.5,150C 189.723,149.05 180.057,149.55 170.5,151.5C 171.694,150.728 172.694,149.728 173.5,148.5C 176.523,146.467 179.523,144.467 182.5,142.5C 183.167,142.167 183.833,141.833 184.5,141.5 Z"/></g>
<g><path style="opacity:1" fill="#fea269" d="M 187.5,139.5 C 186.71,140.401 185.71,141.068 184.5,141.5C 183.833,141.833 183.167,142.167 182.5,142.5C 181.127,142.343 179.793,142.51 178.5,143C 169.546,147.143 160.88,151.81 152.5,157C 149.5,157.667 146.5,157.667 143.5,157C 138.999,154.584 134.666,151.917 130.5,149C 121.121,148.184 111.787,148.517 102.5,150C 99.5819,151.773 96.5819,153.273 93.5,154.5C 83.5743,188.222 77.9077,222.722 76.5,258C 76.9101,267.523 77.5768,277.023 78.5,286.5C 75.4741,281.807 73.6408,276.474 73,270.5C 72.8574,238.952 76.1907,207.618 83,176.5C 84.9694,168.229 88.3027,160.562 93,153.5C 95.2398,150.598 98.0731,148.431 101.5,147C 109.956,143.393 118.623,142.727 127.5,145C 133.761,147.88 140.261,150.047 147,151.5C 149.5,151 152,150.5 154.5,150C 164.745,144.197 175.745,140.697 187.5,139.5 Z"/></g>
<g><path style="opacity:1" fill="#fe92ce" d="M 217.5,203.5 C 211.5,203.5 205.5,203.5 199.5,203.5C 199.809,193.114 199.476,182.781 198.5,172.5C 193.151,166.997 187.151,166.164 180.5,170C 179.54,171.419 178.707,172.919 178,174.5C 177.333,184.5 177.333,194.5 178,204.5C 178.873,208.525 181.039,211.525 184.5,213.5C 181.702,214.706 179.535,216.706 178,219.5C 177.117,222.102 175.617,224.269 173.5,226C 174.056,226.383 174.389,226.883 174.5,227.5C 170.63,226.647 167.464,224.647 165,221.5C 162.545,217.469 160.879,213.136 160,208.5C 159.333,196.5 159.333,184.5 160,172.5C 160.542,169.708 161.376,167.042 162.5,164.5C 165.802,159.332 170.469,155.832 176.5,154C 184.167,153.333 191.833,153.333 199.5,154C 210.408,156.959 216.241,164.126 217,175.5C 217.5,184.827 217.666,194.161 217.5,203.5 Z"/></g>
<g><path style="opacity:1" fill="#fe93d2" d="M 99.5,153.5 C 109.833,153.5 120.167,153.5 130.5,153.5C 131.159,156.455 131.492,159.455 131.5,162.5C 132.615,173.207 133.949,183.874 135.5,194.5C 139.188,226.009 143.188,257.342 147.5,288.5C 147.5,289.5 147.5,290.5 147.5,291.5C 141.833,291.5 136.167,291.5 130.5,291.5C 129.1,290.9 128.1,289.9 127.5,288.5C 127.5,285.167 127.5,281.833 127.5,278.5C 126.833,271.167 126.167,263.833 125.5,256.5C 118.313,256.175 111.313,256.509 104.5,257.5C 103.833,266.5 103.167,275.5 102.5,284.5C 102.5,286.833 102.5,289.167 102.5,291.5C 96.5,291.5 90.5,291.5 84.5,291.5C 83.1667,291.5 82.5,290.833 82.5,289.5C 82.5,288.833 82.5,288.167 82.5,287.5C 88.3085,246.37 93.6419,205.036 98.5,163.5C 98.5,161.167 98.5,158.833 98.5,156.5C 99.1098,155.609 99.4431,154.609 99.5,153.5 Z"/></g>
<g><path style="opacity:1" fill="#fe966c" d="M 182.5,142.5 C 179.523,144.467 176.523,146.467 173.5,148.5C 166.547,151.926 160.213,156.426 154.5,162C 152.238,162.642 150.071,163.475 148,164.5C 145.931,163.736 143.764,163.236 141.5,163C 139.905,160.898 137.905,159.398 135.5,158.5C 133.985,154.82 131.319,152.32 127.5,151C 119.833,150.333 112.167,150.333 104.5,151C 102.347,151.099 100.681,151.933 99.5,153.5C 99.4431,154.609 99.1098,155.609 98.5,156.5C 97.8333,156.5 97.5,156.833 97.5,157.5C 94.47,161.923 92.8034,166.923 92.5,172.5C 91.2061,176.024 90.0395,179.69 89,183.5C 82.3486,218.194 79.1819,253.194 79.5,288.5C 78.6618,288.158 78.3284,287.492 78.5,286.5C 77.5768,277.023 76.9101,267.523 76.5,258C 77.9077,222.722 83.5743,188.222 93.5,154.5C 96.5819,153.273 99.5819,151.773 102.5,150C 111.787,148.517 121.121,148.184 130.5,149C 134.666,151.917 138.999,154.584 143.5,157C 146.5,157.667 149.5,157.667 152.5,157C 160.88,151.81 169.546,147.143 178.5,143C 179.793,142.51 181.127,142.343 182.5,142.5 Z"/></g>
<g><path style="opacity:1" fill="#ffdb57" d="M 365.5,153.5 C 386.313,154.259 406.647,157.759 426.5,164C 455.084,174.917 473.584,195.084 482,224.5C 489.803,258.857 491.469,293.524 487,328.5C 481.62,369.118 459.454,395.618 420.5,408C 407.712,411.52 394.712,413.853 381.5,415C 342.495,418.244 303.495,418.244 264.5,415C 235.736,412.475 207.736,406.475 180.5,397C 169.538,391.852 159.538,385.352 150.5,377.5C 147.336,374.167 144.336,370.667 141.5,367C 142.167,366.833 142.833,366.667 143.5,366.5C 147.917,369.41 151.917,372.91 155.5,377C 157.952,377.29 160.285,377.956 162.5,379C 165.167,381 167.833,383 170.5,385C 176.167,385.333 181.833,385.667 187.5,386C 199.02,391.213 211.02,394.213 223.5,395C 213.031,392.466 202.698,389.466 192.5,386C 193.448,385.517 194.448,385.351 195.5,385.5C 207.845,389.336 220.345,392.669 233,395.5C 238.46,394.403 243.96,394.236 249.5,395C 263.748,397.398 278.082,399.065 292.5,400C 320.186,400.876 347.853,400.543 375.5,399C 397.913,397.529 418.579,390.862 437.5,379C 450.784,368.614 460.284,355.447 466,339.5C 475.647,305.617 475.981,271.617 467,237.5C 454.84,199.189 428.674,177.855 388.5,173.5C 388.5,172.167 388.5,170.833 388.5,169.5C 384.481,169.354 380.481,169.021 376.5,168.5C 376.369,167.761 376.536,167.094 377,166.5C 380.28,167.246 383.614,167.913 387,168.5C 387.5,168.167 388,167.833 388.5,167.5C 384.616,166.159 380.616,165.325 376.5,165C 375.594,163.301 375.261,161.467 375.5,159.5C 368.555,157.848 361.555,156.348 354.5,155C 354.167,154.667 353.833,154.333 353.5,154C 357.486,153.501 361.486,153.334 365.5,153.5 Z"/></g>
<g><path style="opacity:1" fill="#fe8570" d="M 173.5,148.5 C 172.694,149.728 171.694,150.728 170.5,151.5C 161.098,158.567 153.098,166.9 146.5,176.5C 143.737,176.256 141.571,174.923 140,172.5C 137.592,168.11 136.092,163.444 135.5,158.5C 137.905,159.398 139.905,160.898 141.5,163C 143.764,163.236 145.931,163.736 148,164.5C 150.071,163.475 152.238,162.642 154.5,162C 160.213,156.426 166.547,151.926 173.5,148.5 Z"/></g>
<g><path style="opacity:1" fill="#c7147b" d="M 283.5,201.5 C 281.431,203.292 280.097,205.626 279.5,208.5C 277.97,209.067 276.47,209.733 275,210.5C 274.601,210.272 274.435,209.938 274.5,209.5C 281.031,191.242 287.364,172.908 293.5,154.5C 286.416,153.874 279.75,154.541 273.5,156.5C 270.312,159.159 267.812,162.492 266,166.5C 262.854,171.172 260.188,171.172 258,166.5C 256.485,162.39 254.985,158.39 253.5,154.5C 246.833,154.5 240.167,154.5 233.5,154.5C 233.5,169.5 233.5,184.5 233.5,199.5C 232.732,200.263 232.232,201.263 232,202.5C 231.215,197.655 229.882,192.988 228,188.5C 226.301,187.594 224.467,187.261 222.5,187.5C 220.206,192.725 218.539,198.058 217.5,203.5C 217.666,194.161 217.5,184.827 217,175.5C 216.241,164.126 210.408,156.959 199.5,154C 191.833,153.333 184.167,153.333 176.5,154C 170.469,155.832 165.802,159.332 162.5,164.5C 161.624,164.369 160.957,164.702 160.5,165.5C 159.415,167.877 158.248,170.211 157,172.5C 149.081,193.645 151.247,213.145 163.5,231C 161.875,231.853 161.542,232.853 162.5,234C 159.12,235.441 155.953,237.274 153,239.5C 151.667,238.833 150.667,237.833 150,236.5C 149.667,236.833 149.333,237.167 149,237.5C 146.822,230.606 145.155,223.606 144,216.5C 143.667,217.5 143.333,218.5 143,219.5C 141.032,209.989 139.532,200.322 138.5,190.5C 138.833,189.833 139.167,189.167 139.5,188.5C 141.833,184.5 144.167,180.5 146.5,176.5C 153.098,166.9 161.098,158.567 170.5,151.5C 180.057,149.55 189.723,149.05 199.5,150C 207.664,154.242 215.831,158.409 224,162.5C 228.147,159.353 231.98,155.853 235.5,152C 242.432,150.904 249.098,151.57 255.5,154C 257.447,157.07 259.947,159.57 263,161.5C 267.466,159.028 271.299,155.862 274.5,152C 280.833,151.333 287.167,151.333 293.5,152C 294.333,152.833 295.167,153.667 296,154.5C 297.056,164.302 295.556,173.635 291.5,182.5C 291.833,183.167 292.167,183.833 292.5,184.5C 287.71,189.189 284.71,194.856 283.5,201.5 Z"/></g>
<g><path style="opacity:1" fill="#fed856" d="M 376.5,168.5 C 380.481,169.021 384.481,169.354 388.5,169.5C 388.5,170.833 388.5,172.167 388.5,173.5C 428.674,177.855 454.84,199.189 467,237.5C 475.981,271.617 475.647,305.617 466,339.5C 460.284,355.447 450.784,368.614 437.5,379C 418.579,390.862 397.913,397.529 375.5,399C 347.853,400.543 320.186,400.876 292.5,400C 278.082,399.065 263.748,397.398 249.5,395C 243.96,394.236 238.46,394.403 233,395.5C 220.345,392.669 207.845,389.336 195.5,385.5C 185.142,381.818 175.809,376.318 167.5,369C 171.5,368.667 175.5,368.333 179.5,368C 177.208,366.71 175.208,365.043 173.5,363C 174,362.833 174.5,362.667 175,362.5C 178.232,364.2 181.399,366.034 184.5,368C 186.833,368.667 189.167,368.667 191.5,368C 190.584,367.722 189.918,367.222 189.5,366.5C 192.521,367.005 195.521,367.672 198.5,368.5C 200.453,367.844 202.453,367.511 204.5,367.5C 224.871,375.171 245.871,377.504 267.5,374.5C 274.165,375.106 280.832,375.773 287.5,376.5C 299.464,374.341 311.464,374.007 323.5,375.5C 324.696,375.154 324.696,374.654 323.5,374C 330.86,373.617 338.193,372.95 345.5,372C 337.895,370.81 330.229,370.143 322.5,370C 339.354,369.798 356.187,369.298 373,368.5C 379.926,369.354 386.759,368.687 393.5,366.5C 394.167,366.667 394.833,366.833 395.5,367C 394.5,367.333 393.5,367.667 392.5,368C 394.913,368.484 397.246,368.15 399.5,367C 398.328,366.581 397.328,365.915 396.5,365C 405.032,363.903 414.365,361.903 424.5,359C 430.868,354.13 435.701,347.963 439,340.5C 439.333,336.833 439.667,333.167 440,329.5C 440.149,332.279 440.983,332.779 442.5,331C 441.762,327.384 441.096,323.718 440.5,320C 442.178,316.335 442.845,312.668 442.5,309C 440.653,305.51 439.653,301.677 439.5,297.5C 439.701,293.576 440.201,293.576 441,297.5C 441.016,286.839 440.683,276.172 440,265.5C 439.581,266.672 438.915,267.672 438,268.5C 437.833,268 437.667,267.5 437.5,267C 438.29,262.532 439.29,258.032 440.5,253.5C 439.934,251.303 439.268,249.136 438.5,247C 438.759,245.739 439.426,244.739 440.5,244C 439.703,240.255 439.203,236.421 439,232.5C 438.667,234.833 438.333,237.167 438,239.5C 437.857,235.381 437.19,231.381 436,227.5C 428.16,212.999 415.993,206.165 399.5,207C 403.167,206.667 406.833,206.333 410.5,206C 404.833,205.667 399.167,205.333 393.5,205C 390.833,204 390.833,203 393.5,202C 389.235,200.265 384.901,200.098 380.5,201.5C 380.167,199.5 379.833,197.5 379.5,195.5C 373.403,194.578 367.403,193.245 361.5,191.5C 361.5,190.167 361.5,188.833 361.5,187.5C 363.288,187.785 364.955,187.452 366.5,186.5C 363.696,185.895 361.029,185.062 358.5,184C 359.624,183.161 360.291,181.994 360.5,180.5C 359.94,176.195 358.94,172.028 357.5,168C 363.856,167.406 370.189,167.573 376.5,168.5 Z"/></g>
<g><path style="opacity:1" fill="#fe7277" d="M 135.5,158.5 C 136.092,163.444 137.592,168.11 140,172.5C 141.571,174.923 143.737,176.256 146.5,176.5C 144.167,180.5 141.833,184.5 139.5,188.5C 138.778,188.082 138.278,187.416 138,186.5C 137.542,179.71 136.375,173.043 134.5,166.5C 133.828,164.84 132.828,163.507 131.5,162.5C 131.492,159.455 131.159,156.455 130.5,153.5C 120.167,153.5 109.833,153.5 99.5,153.5C 100.681,151.933 102.347,151.099 104.5,151C 112.167,150.333 119.833,150.333 127.5,151C 131.319,152.32 133.985,154.82 135.5,158.5 Z"/></g>
<g><path style="opacity:1" fill="#fe90c8" d="M 253.5,154.5 C 253.935,174.248 252.935,193.914 250.5,213.5C 245.489,213.334 240.489,213.501 235.5,214C 234.934,214.995 234.267,215.828 233.5,216.5C 233.5,213.833 233.5,211.167 233.5,208.5C 233.5,205.5 233.5,202.5 233.5,199.5C 233.5,184.5 233.5,169.5 233.5,154.5C 240.167,154.5 246.833,154.5 253.5,154.5 Z"/></g>
<g><path style="opacity:1" fill="#fe92c9" d="M 274.5,209.5 C 274.167,209.5 273.833,209.5 273.5,209.5C 267.751,210.093 262.085,211.093 256.5,212.5C 256.737,213.791 256.404,214.791 255.5,215.5C 259.89,195.331 265.89,175.665 273.5,156.5C 279.75,154.541 286.416,153.874 293.5,154.5C 287.364,172.908 281.031,191.242 274.5,209.5 Z"/></g>
<g><path style="opacity:1" fill="#df1a89" d="M 199.5,203.5 C 199.167,203.5 198.833,203.5 198.5,203.5C 198.465,194.477 197.965,185.477 197,176.5C 192.555,170.864 187.555,170.197 182,174.5C 179.608,184.798 179.274,195.131 181,205.5C 182.379,207.715 184.213,209.381 186.5,210.5C 187.827,212.182 189.494,213.515 191.5,214.5C 189.139,214.326 186.806,213.993 184.5,213.5C 181.039,211.525 178.873,208.525 178,204.5C 177.333,194.5 177.333,184.5 178,174.5C 178.707,172.919 179.54,171.419 180.5,170C 187.151,166.164 193.151,166.997 198.5,172.5C 199.476,182.781 199.809,193.114 199.5,203.5 Z"/></g>
<g><path style="opacity:1" fill="#ce107c" d="M 198.5,203.5 C 199.292,204.967 199.292,206.3 198.5,207.5C 196.936,206.814 195.269,206.981 193.5,208C 194.5,208.333 195.5,208.667 196.5,209C 196.167,209.333 195.833,209.667 195.5,210C 192.452,209.422 189.452,209.589 186.5,210.5C 184.213,209.381 182.379,207.715 181,205.5C 179.274,195.131 179.608,184.798 182,174.5C 187.555,170.197 192.555,170.864 197,176.5C 197.965,185.477 198.465,194.477 198.5,203.5 Z"/></g>
<g><path style="opacity:1" fill="#e01983" d="M 253.5,154.5 C 254.985,158.39 256.485,162.39 258,166.5C 260.188,171.172 262.854,171.172 266,166.5C 267.812,162.492 270.312,159.159 273.5,156.5C 265.89,175.665 259.89,195.331 255.5,215.5C 254.549,216.919 254.216,218.585 254.5,220.5C 253.167,220.5 251.833,220.5 250.5,220.5C 250.5,218.167 250.5,215.833 250.5,213.5C 252.935,193.914 253.935,174.248 253.5,154.5 Z"/></g>
<g><path style="opacity:1" fill="#9d2160" d="M 313.5,162.5 C 314.497,162.47 315.164,162.97 315.5,164C 315.88,167.853 316.88,171.52 318.5,175C 318.095,175.945 317.428,176.612 316.5,177C 317.793,177.49 319.127,177.657 320.5,177.5C 320.714,179.144 320.38,180.644 319.5,182C 321.134,182.494 322.801,182.66 324.5,182.5C 324.5,183.833 324.5,185.167 324.5,186.5C 325.5,186.5 326.5,186.5 327.5,186.5C 327.663,188.857 327.497,191.19 327,193.5C 326.751,192.376 326.251,191.376 325.5,190.5C 324.41,191.391 324.41,192.391 325.5,193.5C 324.675,194.386 323.675,194.719 322.5,194.5C 322.443,189.318 321.776,189.318 320.5,194.5C 319.808,193.975 319.308,193.308 319,192.5C 318.305,194.722 317.472,196.889 316.5,199C 318.346,199.419 320.346,200.253 322.5,201.5C 320.393,202.468 318.059,202.802 315.5,202.5C 315.649,203.552 315.483,204.552 315,205.5C 313.378,206.099 311.878,206.766 310.5,207.5C 308.408,207.561 306.908,208.561 306,210.5C 301.311,207.116 296.478,206.449 291.5,208.5C 290.781,206.236 290.448,203.903 290.5,201.5C 293.718,201.349 294.051,200.516 291.5,199C 293.871,198.265 296.205,197.432 298.5,196.5C 299.298,196.043 299.631,195.376 299.5,194.5C 300.467,193.194 301.801,192.527 303.5,192.5C 303.5,191.167 303.5,189.833 303.5,188.5C 305.103,188.688 306.437,188.188 307.5,187C 304.972,185.983 304.972,184.816 307.5,183.5C 306.674,182.549 306.508,181.549 307,180.5C 307.333,180.833 307.667,181.167 308,181.5C 308.498,178.518 308.665,175.518 308.5,172.5C 308.337,170.143 308.503,167.81 309,165.5C 312.15,167.161 313.65,166.161 313.5,162.5 Z"/></g>
<g><path style="opacity:1" fill="#fe5585" d="M 131.5,162.5 C 132.828,163.507 133.828,164.84 134.5,166.5C 136.375,173.043 137.542,179.71 138,186.5C 138.278,187.416 138.778,188.082 139.5,188.5C 139.167,189.167 138.833,189.833 138.5,190.5C 137.596,191.209 137.263,192.209 137.5,193.5C 136.833,193.833 136.167,194.167 135.5,194.5C 133.949,183.874 132.615,173.207 131.5,162.5 Z"/></g>
<g><path style="opacity:1" fill="#fed153" d="M 361.5,191.5 C 367.403,193.245 373.403,194.578 379.5,195.5C 379.833,197.5 380.167,199.5 380.5,201.5C 384.901,200.098 389.235,200.265 393.5,202C 390.833,203 390.833,204 393.5,205C 399.167,205.333 404.833,205.667 410.5,206C 406.833,206.333 403.167,206.667 399.5,207C 415.993,206.165 428.16,212.999 436,227.5C 437.19,231.381 437.857,235.381 438,239.5C 438.333,237.167 438.667,234.833 439,232.5C 439.203,236.421 439.703,240.255 440.5,244C 439.426,244.739 438.759,245.739 438.5,247C 439.268,249.136 439.934,251.303 440.5,253.5C 439.29,258.032 438.29,262.532 437.5,267C 437.667,267.5 437.833,268 438,268.5C 438.915,267.672 439.581,266.672 440,265.5C 440.683,276.172 441.016,286.839 441,297.5C 440.201,293.576 439.701,293.576 439.5,297.5C 439.653,301.677 440.653,305.51 442.5,309C 442.845,312.668 442.178,316.335 440.5,320C 441.096,323.718 441.762,327.384 442.5,331C 440.983,332.779 440.149,332.279 440,329.5C 439.667,333.167 439.333,336.833 439,340.5C 435.701,347.963 430.868,354.13 424.5,359C 414.365,361.903 405.032,363.903 396.5,365C 397.328,365.915 398.328,366.581 399.5,367C 397.246,368.15 394.913,368.484 392.5,368C 393.5,367.667 394.5,367.333 395.5,367C 394.833,366.833 394.167,366.667 393.5,366.5C 386.759,368.687 379.926,369.354 373,368.5C 356.187,369.298 339.354,369.798 322.5,370C 330.229,370.143 337.895,370.81 345.5,372C 338.193,372.95 330.86,373.617 323.5,374C 324.696,374.654 324.696,375.154 323.5,375.5C 311.464,374.007 299.464,374.341 287.5,376.5C 280.832,375.773 274.165,375.106 267.5,374.5C 279.779,372.076 291.779,368.41 303.5,363.5C 314.064,362.22 324.564,361.22 335,360.5C 351.118,361.759 367.118,361.759 383,360.5C 384.167,360.333 385.333,360.167 386.5,360C 384.833,359.667 383.167,359.333 381.5,359C 384.095,358.774 386.595,358.274 389,357.5C 389.333,358.167 389.667,358.833 390,359.5C 393.101,357.718 396.435,356.385 400,355.5C 403.607,356.789 407.107,357.456 410.5,357.5C 410.489,356.559 410.989,355.892 412,355.5C 413.465,356.33 414.965,356.496 416.5,356C 415.833,355.667 415.167,355.333 414.5,355C 417,354.625 419.333,353.792 421.5,352.5C 422.086,352.709 422.586,353.043 423,353.5C 426.016,350.651 428.85,347.651 431.5,344.5C 430.787,341.748 431.287,339.082 433,336.5C 433.518,330.807 434.018,325.307 434.5,320C 433.833,319.333 433.167,318.667 432.5,318C 432.942,314.843 433.275,311.676 433.5,308.5C 431.513,303.925 430.846,299.258 431.5,294.5C 428.19,282.348 428.19,270.182 431.5,258C 431.589,256.284 431.256,254.451 430.5,252.5C 431.603,252.002 432.603,251.669 433.5,251.5C 432.5,250.833 431.5,250.167 430.5,249.5C 434.023,225.844 423.69,214.011 399.5,214C 398.167,213.333 396.833,212.667 395.5,212C 385.595,210.819 376.595,209.653 368.5,208.5C 368.672,207.508 368.338,206.842 367.5,206.5C 367.293,203.759 366.293,201.426 364.5,199.5C 364.06,196.62 363.06,193.954 361.5,191.5 Z"/></g>
<g><path style="opacity:1" fill="#ff687a" d="M 98.5,156.5 C 98.5,158.833 98.5,161.167 98.5,163.5C 96.8496,167.893 95.6829,172.56 95,177.5C 92.4672,201.786 88.9672,225.786 84.5,249.5C 87.1972,218.587 91.5305,187.921 97.5,157.5C 97.5,156.833 97.8333,156.5 98.5,156.5 Z"/></g>
<g><path style="opacity:1" fill="#9a2859" d="M 364.5,199.5 C 366.293,201.426 367.293,203.759 367.5,206.5C 365.23,209.294 362.23,210.46 358.5,210C 359.167,209.667 359.833,209.333 360.5,209C 358.167,208.333 355.833,208.333 353.5,209C 354.167,209.333 354.833,209.667 355.5,210C 352.766,210.21 350.266,211.044 348,212.5C 346.172,210.919 344.172,209.585 342,208.5C 339.077,209.464 336.077,209.464 333,208.5C 330.316,210.006 327.649,210.673 325,210.5C 320.102,209.624 315.269,208.624 310.5,207.5C 311.878,206.766 313.378,206.099 315,205.5C 315.483,204.552 315.649,203.552 315.5,202.5C 318.059,202.802 320.393,202.468 322.5,201.5C 336.413,199.727 350.413,199.061 364.5,199.5 Z"/></g>
<g><path style="opacity:1" fill="#feb863" d="M 198.5,132.5 C 189.722,134.391 180.722,135.891 171.5,137C 163.136,139.624 154.802,142.124 146.5,144.5C 141.148,143.105 135.814,141.605 130.5,140C 116.187,136.771 103.187,139.437 91.5,148C 84.6562,156.854 79.8229,166.687 77,177.5C 72.2277,201.244 69.2277,225.244 68,249.5C 66.4186,262.194 67.752,274.527 72,286.5C 74.5963,294.097 79.763,298.93 87.5,301C 104.781,302.479 121.447,304.646 137.5,307.5C 138.737,308.965 139.737,310.632 140.5,312.5C 135.234,311.927 129.9,310.594 124.5,308.5C 123.833,308.833 123.167,309.167 122.5,309.5C 117.057,306.247 111.557,305.581 106,307.5C 105.333,306.833 104.667,306.167 104,305.5C 80.851,306.37 68.1844,295.036 66,271.5C 64.064,235.788 68.064,200.788 78,166.5C 80.8119,160.21 84.1452,154.21 88,148.5C 96.1754,140.601 106.009,136.268 117.5,135.5C 128.066,136.9 138.566,138.567 149,140.5C 157.146,138.008 165.312,135.508 173.5,133C 180.006,132.571 186.506,132.071 193,131.5C 195.033,131.506 196.866,131.839 198.5,132.5 Z"/></g>
<g><path style="opacity:1" fill="#dd1c8a" d="M 137.5,193.5 C 139.922,213.206 142.755,232.873 146,252.5C 147.242,264.467 147.742,276.467 147.5,288.5C 143.188,257.342 139.188,226.009 135.5,194.5C 136.167,194.167 136.833,193.833 137.5,193.5 Z"/></g>
<g><path style="opacity:1" fill="#ff4683" d="M 120.5,211.5 C 120.5,212.5 120.5,213.5 120.5,214.5C 120.666,222.174 120.5,229.841 120,237.5C 111.748,240.583 108.248,237.75 109.5,229C 110.735,214.746 112.568,200.579 115,186.5C 116.364,195.071 118.198,203.405 120.5,211.5 Z"/></g>
<g><path style="opacity:1" fill="#ff8b70" d="M 92.5,172.5 C 89.0937,196.748 85.9271,221.081 83,245.5C 82.5,256.5 82,267.5 81.5,278.5C 81.5013,282.349 81.8346,286.016 82.5,289.5C 82.5,290.833 83.1667,291.5 84.5,291.5C 84.6107,292.117 84.944,292.617 85.5,293C 91.1667,293.667 96.8333,293.667 102.5,293C 104.049,291.786 105.215,290.286 106,288.5C 106.479,278.161 111.313,275.161 120.5,279.5C 123.419,284.269 125.752,289.269 127.5,294.5C 125.114,293.627 123.114,292.127 121.5,290C 117.643,289.24 114.143,288.406 111,287.5C 108.795,290.04 106.295,292.207 103.5,294C 97.1754,294.5 90.8421,294.666 84.5,294.5C 83.5041,294.586 82.6708,294.252 82,293.5C 80.5619,292.1 79.7286,290.433 79.5,288.5C 79.1819,253.194 82.3486,218.194 89,183.5C 90.0395,179.69 91.2061,176.024 92.5,172.5 Z"/></g>
<g><path style="opacity:1" fill="#d51a78" d="M 233.5,199.5 C 233.5,202.5 233.5,205.5 233.5,208.5C 232.504,208.586 231.671,208.252 231,207.5C 230.667,209.5 230.333,211.5 230,213.5C 228.972,211.639 227.472,210.305 225.5,209.5C 223.538,210.634 221.538,210.634 219.5,209.5C 215.473,210.095 211.473,210.761 207.5,211.5C 206.914,211.291 206.414,210.957 206,210.5C 203.987,215.041 200.987,215.707 197,212.5C 196.544,213.744 197.044,214.577 198.5,215C 197.906,215.464 197.239,215.631 196.5,215.5C 194.585,215.784 192.919,215.451 191.5,214.5C 189.494,213.515 187.827,212.182 186.5,210.5C 189.452,209.589 192.452,209.422 195.5,210C 195.833,209.667 196.167,209.333 196.5,209C 195.5,208.667 194.5,208.333 193.5,208C 195.269,206.981 196.936,206.814 198.5,207.5C 199.292,206.3 199.292,204.967 198.5,203.5C 198.833,203.5 199.167,203.5 199.5,203.5C 205.5,203.5 211.5,203.5 217.5,203.5C 218.539,198.058 220.206,192.725 222.5,187.5C 224.467,187.261 226.301,187.594 228,188.5C 229.882,192.988 231.215,197.655 232,202.5C 232.232,201.263 232.732,200.263 233.5,199.5 Z"/></g>
<g><path style="opacity:1" fill="#d7246e" d="M 233.5,208.5 C 233.5,211.167 233.5,213.833 233.5,216.5C 233.5,217.167 233.5,217.833 233.5,218.5C 231.7,217.395 230.533,218.061 230,220.5C 226.958,218.111 223.458,217.111 219.5,217.5C 215.046,218.418 210.713,219.085 206.5,219.5C 203.011,218.342 199.678,217.009 196.5,215.5C 197.239,215.631 197.906,215.464 198.5,215C 197.044,214.577 196.544,213.744 197,212.5C 200.987,215.707 203.987,215.041 206,210.5C 206.414,210.957 206.914,211.291 207.5,211.5C 211.473,210.761 215.473,210.095 219.5,209.5C 221.538,210.634 223.538,210.634 225.5,209.5C 227.472,210.305 228.972,211.639 230,213.5C 230.333,211.5 230.667,209.5 231,207.5C 231.671,208.252 232.504,208.586 233.5,208.5 Z"/></g>
<g><path style="opacity:1" fill="#fecb50" d="M 368.5,208.5 C 376.595,209.653 385.595,210.819 395.5,212C 396.833,212.667 398.167,213.333 399.5,214C 423.69,214.011 434.023,225.844 430.5,249.5C 431.5,250.167 432.5,250.833 433.5,251.5C 432.603,251.669 431.603,252.002 430.5,252.5C 431.256,254.451 431.589,256.284 431.5,258C 428.19,270.182 428.19,282.348 431.5,294.5C 430.846,299.258 431.513,303.925 433.5,308.5C 433.275,311.676 432.942,314.843 432.5,318C 433.167,318.667 433.833,319.333 434.5,320C 434.018,325.307 433.518,330.807 433,336.5C 431.287,339.082 430.787,341.748 431.5,344.5C 428.85,347.651 426.016,350.651 423,353.5C 422.586,353.043 422.086,352.709 421.5,352.5C 419.333,353.792 417,354.625 414.5,355C 415.167,355.333 415.833,355.667 416.5,356C 414.965,356.496 413.465,356.33 412,355.5C 410.989,355.892 410.489,356.559 410.5,357.5C 407.107,357.456 403.607,356.789 400,355.5C 396.435,356.385 393.101,357.718 390,359.5C 389.667,358.833 389.333,358.167 389,357.5C 386.595,358.274 384.095,358.774 381.5,359C 383.167,359.333 384.833,359.667 386.5,360C 385.333,360.167 384.167,360.333 383,360.5C 367.118,361.759 351.118,361.759 335,360.5C 324.564,361.22 314.064,362.22 303.5,363.5C 303.5,362.833 303.833,362.5 304.5,362.5C 308.966,360.434 313.299,358.1 317.5,355.5C 318.167,355.167 318.833,354.833 319.5,354.5C 339.489,354.973 359.322,354.973 379,354.5C 383.983,352.835 388.983,351.168 394,349.5C 396.62,349.657 399.287,349.991 402,350.5C 408.512,349.819 415.012,348.986 421.5,348C 424.426,346.493 426.426,344.159 427.5,341C 427.854,337.448 427.854,333.782 427.5,330C 428.227,327.876 428.894,325.709 429.5,323.5C 428.483,317.244 427.149,311.078 425.5,305C 426.458,303.853 426.125,302.853 424.5,302C 424.616,300.732 424.949,299.398 425.5,298C 423.276,294.88 422.609,291.547 423.5,288C 423.156,286.635 422.489,285.468 421.5,284.5C 422.188,280.447 422.188,276.281 421.5,272C 423.489,270.39 423.822,268.557 422.5,266.5C 423.852,260.947 425.185,255.113 426.5,249C 425.797,245.313 425.797,241.813 426.5,238.5C 425.622,234.191 424.788,229.858 424,225.5C 423.167,224.667 422.333,223.833 421.5,223C 417.032,221.684 412.865,220.517 409,219.5C 406.148,220.865 403.482,220.531 401,218.5C 397.466,219.301 393.966,218.967 390.5,217.5C 389.554,217.987 388.554,218.32 387.5,218.5C 382.148,216.589 376.815,215.923 371.5,216.5C 371.5,215.833 371.167,215.5 370.5,215.5C 370.233,213.035 369.566,210.701 368.5,208.5 Z"/></g>
<g><path style="opacity:1" fill="#b92d5e" d="M 283.5,201.5 C 283.351,202.552 283.517,203.552 284,204.5C 285.993,203.086 288.16,202.086 290.5,201.5C 290.448,203.903 290.781,206.236 291.5,208.5C 291.062,208.435 290.728,208.601 290.5,209C 293.102,209.935 294.602,211.768 295,214.5C 295.414,214.043 295.914,213.709 296.5,213.5C 298.854,214.06 301.187,214.727 303.5,215.5C 305.015,217.082 306.681,218.416 308.5,219.5C 307.226,220.189 307.226,221.023 308.5,222C 305.635,222.183 302.969,222.683 300.5,223.5C 298.565,222.85 296.565,222.517 294.5,222.5C 292.345,222.628 290.345,222.128 288.5,221C 286.961,217.456 284.294,215.456 280.5,215C 279.577,212.959 279.244,210.792 279.5,208.5C 280.097,205.626 281.431,203.292 283.5,201.5 Z"/></g>
<g><path style="opacity:1" fill="#a62d57" d="M 310.5,207.5 C 315.269,208.624 320.102,209.624 325,210.5C 327.649,210.673 330.316,210.006 333,208.5C 336.077,209.464 339.077,209.464 342,208.5C 344.172,209.585 346.172,210.919 348,212.5C 350.266,211.044 352.766,210.21 355.5,210C 354.833,209.667 354.167,209.333 353.5,209C 355.833,208.333 358.167,208.333 360.5,209C 359.833,209.333 359.167,209.667 358.5,210C 362.23,210.46 365.23,209.294 367.5,206.5C 368.338,206.842 368.672,207.508 368.5,208.5C 369.566,210.701 370.233,213.035 370.5,215.5C 370.38,216.586 369.713,217.253 368.5,217.5C 365.439,218.279 362.439,218.612 359.5,218.5C 358.304,218.154 358.304,217.654 359.5,217C 350.228,217.398 340.728,216.564 331,214.5C 326.748,215.711 322.414,216.711 318,217.5C 316.343,218.484 314.677,219.484 313,220.5C 311.612,220.786 310.112,220.452 308.5,219.5C 306.681,218.416 305.015,217.082 303.5,215.5C 301.187,214.727 298.854,214.06 296.5,213.5C 295.914,213.709 295.414,214.043 295,214.5C 294.602,211.768 293.102,209.935 290.5,209C 290.728,208.601 291.062,208.435 291.5,208.5C 296.478,206.449 301.311,207.116 306,210.5C 306.908,208.561 308.408,207.561 310.5,207.5 Z"/></g>
<g><path style="opacity:1" fill="#fe8fba" d="M 184.5,213.5 C 186.806,213.993 189.139,214.326 191.5,214.5C 192.919,215.451 194.585,215.784 196.5,215.5C 199.678,217.009 203.011,218.342 206.5,219.5C 206.5,219.833 206.5,220.167 206.5,220.5C 198.266,220.396 193.266,224.396 191.5,232.5C 189.236,231.781 186.903,231.448 184.5,231.5C 181.111,230.29 177.778,228.957 174.5,227.5C 174.389,226.883 174.056,226.383 173.5,226C 175.617,224.269 177.117,222.102 178,219.5C 179.535,216.706 181.702,214.706 184.5,213.5 Z"/></g>
<g><path style="opacity:1" fill="#cf147c" d="M 162.5,164.5 C 161.376,167.042 160.542,169.708 160,172.5C 159.333,184.5 159.333,196.5 160,208.5C 160.879,213.136 162.545,217.469 165,221.5C 167.464,224.647 170.63,226.647 174.5,227.5C 177.778,228.957 181.111,230.29 184.5,231.5C 182.533,231.739 180.699,231.406 179,230.5C 178.487,232.521 177.32,234.021 175.5,235C 176.844,237.144 176.51,238.977 174.5,240.5C 169.637,240.181 164.97,240.514 160.5,241.5C 158.912,253.774 159.412,266.108 162,278.5C 165.162,286.647 170.995,291.313 179.5,292.5C 175.462,293.863 171.462,293.696 167.5,292C 163.586,288.252 159.253,285.085 154.5,282.5C 151.928,285.31 149.594,288.31 147.5,291.5C 147.5,290.5 147.5,289.5 147.5,288.5C 147.742,276.467 147.242,264.467 146,252.5C 142.755,232.873 139.922,213.206 137.5,193.5C 137.263,192.209 137.596,191.209 138.5,190.5C 139.532,200.322 141.032,209.989 143,219.5C 143.333,218.5 143.667,217.5 144,216.5C 145.155,223.606 146.822,230.606 149,237.5C 149.333,237.167 149.667,236.833 150,236.5C 150.667,237.833 151.667,238.833 153,239.5C 155.953,237.274 159.12,235.441 162.5,234C 161.542,232.853 161.875,231.853 163.5,231C 151.247,213.145 149.081,193.645 157,172.5C 158.248,170.211 159.415,167.877 160.5,165.5C 160.957,164.702 161.624,164.369 162.5,164.5 Z"/></g>
<g><path style="opacity:1" fill="#d53063" d="M 279.5,208.5 C 279.244,210.792 279.577,212.959 280.5,215C 284.294,215.456 286.961,217.456 288.5,221C 290.345,222.128 292.345,222.628 294.5,222.5C 288.69,223.49 282.69,223.823 276.5,223.5C 276.5,222.833 276.167,222.5 275.5,222.5C 274.09,218.296 273.423,213.963 273.5,209.5C 273.833,209.5 274.167,209.5 274.5,209.5C 274.435,209.938 274.601,210.272 275,210.5C 276.47,209.733 277.97,209.067 279.5,208.5 Z"/></g>
<g><path style="opacity:1" fill="#df3362" d="M 233.5,218.5 C 233.5,220.833 233.5,223.167 233.5,225.5C 233.5,225.833 233.5,226.167 233.5,226.5C 226.135,225.868 218.802,225.201 211.5,224.5C 210.415,222.413 208.749,221.08 206.5,220.5C 206.5,220.167 206.5,219.833 206.5,219.5C 210.713,219.085 215.046,218.418 219.5,217.5C 223.458,217.111 226.958,218.111 230,220.5C 230.533,218.061 231.7,217.395 233.5,218.5 Z"/></g>
<g><path style="opacity:1" fill="#fe8ca3" d="M 273.5,209.5 C 273.423,213.963 274.09,218.296 275.5,222.5C 268.457,222.28 261.457,222.614 254.5,223.5C 250.645,231.952 245.311,232.786 238.5,226C 236.866,225.506 235.199,225.34 233.5,225.5C 233.5,223.167 233.5,220.833 233.5,218.5C 233.5,217.833 233.5,217.167 233.5,216.5C 234.267,215.828 234.934,214.995 235.5,214C 240.489,213.501 245.489,213.334 250.5,213.5C 250.5,215.833 250.5,218.167 250.5,220.5C 251.833,220.5 253.167,220.5 254.5,220.5C 254.216,218.585 254.549,216.919 255.5,215.5C 256.404,214.791 256.737,213.791 256.5,212.5C 262.085,211.093 267.751,210.093 273.5,209.5 Z"/></g>
<g><path style="opacity:1" fill="#ff7a75" d="M 97.5,157.5 C 91.5305,187.921 87.1972,218.587 84.5,249.5C 83.6436,262.156 82.977,274.823 82.5,287.5C 82.5,288.167 82.5,288.833 82.5,289.5C 81.8346,286.016 81.5013,282.349 81.5,278.5C 82,267.5 82.5,256.5 83,245.5C 85.9271,221.081 89.0937,196.748 92.5,172.5C 92.8034,166.923 94.47,161.923 97.5,157.5 Z"/></g>
<g><path style="opacity:1" fill="#b03752" d="M 370.5,215.5 C 371.167,215.5 371.5,215.833 371.5,216.5C 371.5,217.5 371.5,218.5 371.5,219.5C 369.552,223.651 366.886,227.485 363.5,231C 360.653,231.944 358.153,231.444 356,229.5C 355.275,230.059 354.442,230.392 353.5,230.5C 351.41,227.745 348.743,225.745 345.5,224.5C 342.512,222.86 339.179,222.026 335.5,222C 329.833,221.333 324.167,221.333 318.5,222C 316.116,223.41 314.45,225.41 313.5,228C 311.449,230.02 309.116,231.52 306.5,232.5C 305.521,230.855 304.188,229.521 302.5,228.5C 301.544,226.925 300.877,225.258 300.5,223.5C 302.969,222.683 305.635,222.183 308.5,222C 307.226,221.023 307.226,220.189 308.5,219.5C 310.112,220.452 311.612,220.786 313,220.5C 314.677,219.484 316.343,218.484 318,217.5C 322.414,216.711 326.748,215.711 331,214.5C 340.728,216.564 350.228,217.398 359.5,217C 358.304,217.654 358.304,218.154 359.5,218.5C 362.439,218.612 365.439,218.279 368.5,217.5C 369.713,217.253 370.38,216.586 370.5,215.5 Z"/></g>
<g><path style="opacity:1" fill="#fe8790" d="M 206.5,220.5 C 208.749,221.08 210.415,222.413 211.5,224.5C 208.15,224.335 204.817,224.502 201.5,225C 200.263,225.232 199.263,225.732 198.5,226.5C 196.612,228.988 195.945,231.988 196.5,235.5C 195.833,235.167 195.167,234.833 194.5,234.5C 194.158,233.662 193.492,233.328 192.5,233.5C 191.833,233.5 191.5,233.167 191.5,232.5C 193.266,224.396 198.266,220.396 206.5,220.5 Z"/></g>
<g><path style="opacity:1" fill="#f46254" d="M 211.5,224.5 C 218.802,225.201 226.135,225.868 233.5,226.5C 233.5,227.167 233.5,227.833 233.5,228.5C 231.194,228.007 228.861,227.674 226.5,227.5C 217.348,226.506 208.015,226.173 198.5,226.5C 199.263,225.732 200.263,225.232 201.5,225C 204.817,224.502 208.15,224.335 211.5,224.5 Z"/></g>
<g><path style="opacity:1" fill="#fec14b" d="M 371.5,216.5 C 376.815,215.923 382.148,216.589 387.5,218.5C 388.554,218.32 389.554,217.987 390.5,217.5C 393.966,218.967 397.466,219.301 401,218.5C 403.482,220.531 406.148,220.865 409,219.5C 412.865,220.517 417.032,221.684 421.5,223C 422.333,223.833 423.167,224.667 424,225.5C 424.788,229.858 425.622,234.191 426.5,238.5C 425.797,241.813 425.797,245.313 426.5,249C 425.185,255.113 423.852,260.947 422.5,266.5C 423.822,268.557 423.489,270.39 421.5,272C 422.188,276.281 422.188,280.447 421.5,284.5C 422.489,285.468 423.156,286.635 423.5,288C 422.609,291.547 423.276,294.88 425.5,298C 424.949,299.398 424.616,300.732 424.5,302C 426.125,302.853 426.458,303.853 425.5,305C 427.149,311.078 428.483,317.244 429.5,323.5C 428.894,325.709 428.227,327.876 427.5,330C 427.854,333.782 427.854,337.448 427.5,341C 426.426,344.159 424.426,346.493 421.5,348C 415.012,348.986 408.512,349.819 402,350.5C 399.287,349.991 396.62,349.657 394,349.5C 388.983,351.168 383.983,352.835 379,354.5C 359.322,354.973 339.489,354.973 319.5,354.5C 321.5,352.833 323.5,351.167 325.5,349.5C 328.786,347.549 331.786,345.215 334.5,342.5C 337.599,342.092 339.933,343.259 341.5,346C 347.833,346.667 354.167,346.667 360.5,346C 363.5,342.667 366.5,342.667 369.5,346C 374.167,346.667 378.833,346.667 383.5,346C 387.742,343.729 392.075,341.563 396.5,339.5C 399.948,340.358 402.948,342.525 405.5,346C 410.5,346.667 415.5,346.667 420.5,346C 421.766,345.691 422.933,345.191 424,344.5C 423.88,335.767 422.88,327.1 421,318.5C 420.5,318 420,317.5 419.5,317C 419.833,316 420.167,315 420.5,314C 418.832,308.309 417.165,302.642 415.5,297C 416.059,296.275 416.392,295.442 416.5,294.5C 415.564,289.986 414.564,285.486 413.5,281C 414.681,277.275 414.681,273.608 413.5,270C 417.201,257.555 420.201,244.555 422.5,231C 422.472,229.93 422.139,229.097 421.5,228.5C 421.672,227.508 421.338,226.842 420.5,226.5C 414.833,226.5 409.167,226.5 403.5,226.5C 403.737,227.791 403.404,228.791 402.5,229.5C 402.5,228.833 402.167,228.5 401.5,228.5C 399.155,230.331 396.488,231.498 393.5,232C 395.595,232.556 395.762,233.056 394,233.5C 391.161,230.328 388.328,227.162 385.5,224C 381.179,223.501 376.846,223.334 372.5,223.5C 372.768,221.901 372.434,220.568 371.5,219.5C 371.5,218.5 371.5,217.5 371.5,216.5 Z"/></g>
<g><path style="opacity:1" fill="#fecbac" d="M 226.5,227.5 C 228.861,227.674 231.194,228.007 233.5,228.5C 239.994,231.787 243.827,237.12 245,244.5C 245.667,256.833 245.667,269.167 245,281.5C 244.697,284.999 243.864,288.332 242.5,291.5C 239.142,297.852 233.809,301.186 226.5,301.5C 221.833,301.5 217.167,301.5 212.5,301.5C 212.5,315.5 212.5,329.5 212.5,343.5C 207.5,343.5 202.5,343.5 197.5,343.5C 197.5,304.833 197.5,266.167 197.5,227.5C 207.167,227.5 216.833,227.5 226.5,227.5 Z"/></g>
<g><path style="opacity:1" fill="#fecbac" d="M 296.5,240.5 C 288.167,240.5 279.833,240.5 271.5,240.5C 271.5,252.833 271.5,265.167 271.5,277.5C 278.167,277.5 284.833,277.5 291.5,277.5C 293.167,277.5 294.833,277.5 296.5,277.5C 296.819,282.363 296.486,287.03 295.5,291.5C 287.5,291.5 279.5,291.5 271.5,291.5C 271.5,304.167 271.5,316.833 271.5,329.5C 279.5,329.5 287.5,329.5 295.5,329.5C 297.436,333.715 298.103,338.381 297.5,343.5C 283.833,343.5 270.167,343.5 256.5,343.5C 256.5,304.833 256.5,266.167 256.5,227.5C 269.833,227.5 283.167,227.5 296.5,227.5C 296.5,231.833 296.5,236.167 296.5,240.5 Z"/></g>
<g><path style="opacity:1" fill="#fecaaa" d="M 318.5,226.5 C 327.895,225.862 336.895,226.529 345.5,228.5C 348.837,257.209 352.504,285.876 356.5,314.5C 357.089,324.212 358.089,333.879 359.5,343.5C 354.167,343.5 348.833,343.5 343.5,343.5C 343.492,340.455 343.159,337.455 342.5,334.5C 342.287,327.826 341.954,321.159 341.5,314.5C 335.5,314.5 329.5,314.5 323.5,314.5C 322.533,323.81 321.866,333.143 321.5,342.5C 316.025,343.489 310.358,343.822 304.5,343.5C 304.5,342.167 304.5,340.833 304.5,339.5C 309.56,302.691 314.226,265.691 318.5,228.5C 318.5,227.833 318.5,227.167 318.5,226.5 Z"/></g>
<g><path style="opacity:1" fill="#ffcbab" d="M 369.5,226.5 C 370.5,226.5 371.5,226.5 372.5,226.5C 377.619,225.897 382.285,226.564 386.5,228.5C 386.821,246.581 385.821,264.581 383.5,282.5C 384.5,282.5 385.5,282.5 386.5,282.5C 390.75,264.501 396.083,246.834 402.5,229.5C 403.404,228.791 403.737,227.791 403.5,226.5C 409.167,226.5 414.833,226.5 420.5,226.5C 414.939,243.463 408.939,260.296 402.5,277C 408.528,297.359 414.862,317.525 421.5,337.5C 421.833,339.5 422.167,341.5 422.5,343.5C 416.537,344.045 410.87,343.379 405.5,341.5C 401.308,326.016 396.808,310.683 392,295.5C 390,300.167 388,304.833 386,309.5C 385.5,320.828 385.333,332.162 385.5,343.5C 380.167,343.5 374.833,343.5 369.5,343.5C 369.5,325.167 369.5,306.833 369.5,288.5C 369.5,267.833 369.5,247.167 369.5,226.5 Z"/></g>
<g><path style="opacity:1" fill="#ff8780" d="M 275.5,222.5 C 276.167,222.5 276.5,222.833 276.5,223.5C 276.5,224.5 276.5,225.5 276.5,226.5C 269.313,226.175 262.313,226.509 255.5,227.5C 254.883,227.611 254.383,227.944 254,228.5C 253.17,233.323 251.836,237.989 250,242.5C 248.473,240.779 247.473,238.779 247,236.5C 244.205,234.707 241.705,232.54 239.5,230C 237.655,228.872 235.655,228.372 233.5,228.5C 233.5,227.833 233.5,227.167 233.5,226.5C 233.5,226.167 233.5,225.833 233.5,225.5C 235.199,225.34 236.866,225.506 238.5,226C 245.311,232.786 250.645,231.952 254.5,223.5C 261.457,222.614 268.457,222.28 275.5,222.5 Z"/></g>
<g><path style="opacity:1" fill="#d44849" d="M 297.5,226.5 C 298.458,226.953 299.292,227.619 300,228.5C 300.667,233.167 300.667,237.833 300,242.5C 294.259,243.475 288.425,243.808 282.5,243.5C 282.167,243.5 281.833,243.5 281.5,243.5C 286.59,241.856 291.923,240.856 297.5,240.5C 297.5,235.833 297.5,231.167 297.5,226.5 Z"/></g>
<g><path style="opacity:1" fill="#bc4548" d="M 371.5,219.5 C 372.434,220.568 372.768,221.901 372.5,223.5C 372.5,224.5 372.5,225.5 372.5,226.5C 371.5,226.5 370.5,226.5 369.5,226.5C 368.833,226.5 368.5,226.833 368.5,227.5C 367.883,227.611 367.383,227.944 367,228.5C 366.432,234.574 365.432,240.574 364,246.5C 360.381,249.343 357.048,249.01 354,245.5C 351.194,239.75 349.194,233.75 348,227.5C 346.955,226.627 346.122,225.627 345.5,224.5C 348.743,225.745 351.41,227.745 353.5,230.5C 354.442,230.392 355.275,230.059 356,229.5C 358.153,231.444 360.653,231.944 363.5,231C 366.886,227.485 369.552,223.651 371.5,219.5 Z"/></g>
<g><path style="opacity:1" fill="#feac41" d="M 372.5,223.5 C 376.846,223.334 381.179,223.501 385.5,224C 388.328,227.162 391.161,230.328 394,233.5C 395.762,233.056 395.595,232.556 393.5,232C 396.488,231.498 399.155,230.331 401.5,228.5C 399.526,234.252 396.36,239.252 392,243.5C 390.056,239.065 388.723,234.398 388,229.5C 387.617,228.944 387.117,228.611 386.5,228.5C 382.285,226.564 377.619,225.897 372.5,226.5C 372.5,225.5 372.5,224.5 372.5,223.5 Z"/></g>
<g><path style="opacity:1" fill="#ff3e90" d="M 120.5,211.5 C 118.198,203.405 116.364,195.071 115,186.5C 112.568,200.579 110.735,214.746 109.5,229C 108.248,237.75 111.748,240.583 120,237.5C 120.5,229.841 120.666,222.174 120.5,214.5C 122.072,222.949 122.739,231.616 122.5,240.5C 117.5,240.5 112.5,240.5 107.5,240.5C 108.933,217.838 110.433,195.171 112,172.5C 113.401,170.808 115.234,170.141 117.5,170.5C 118.79,184.142 119.79,197.809 120.5,211.5 Z"/></g>
<g><path style="opacity:1" fill="#da256e" d="M 184.5,231.5 C 186.903,231.448 189.236,231.781 191.5,232.5C 191.5,233.167 191.833,233.5 192.5,233.5C 189.843,237.016 188.343,241.016 188,245.5C 186.53,255.715 186.363,265.882 187.5,276C 186.207,276.49 184.873,276.657 183.5,276.5C 181.629,276.141 180.129,275.141 179,273.5C 177.801,270.274 177.301,266.941 177.5,263.5C 177.5,255.833 177.5,248.167 177.5,240.5C 176.5,240.5 175.5,240.5 174.5,240.5C 176.51,238.977 176.844,237.144 175.5,235C 177.32,234.021 178.487,232.521 179,230.5C 180.699,231.406 182.533,231.739 184.5,231.5 Z"/></g>
<g><path style="opacity:1" fill="#de3164" d="M 192.5,233.5 C 193.492,233.328 194.158,233.662 194.5,234.5C 193.552,248.464 193.219,262.464 193.5,276.5C 193.5,276.833 193.5,277.167 193.5,277.5C 190.167,277.5 186.833,277.5 183.5,277.5C 183.5,277.167 183.5,276.833 183.5,276.5C 184.873,276.657 186.207,276.49 187.5,276C 186.363,265.882 186.53,255.715 188,245.5C 188.343,241.016 189.843,237.016 192.5,233.5 Z"/></g>
<g><path style="opacity:1" fill="#feb243" d="M 421.5,228.5 C 422.139,229.097 422.472,229.93 422.5,231C 420.201,244.555 417.201,257.555 413.5,270C 414.681,273.608 414.681,277.275 413.5,281C 414.564,285.486 415.564,289.986 416.5,294.5C 416.392,295.442 416.059,296.275 415.5,297C 417.165,302.642 418.832,308.309 420.5,314C 420.167,315 419.833,316 419.5,317C 420,317.5 420.5,318 421,318.5C 422.88,327.1 423.88,335.767 424,344.5C 422.933,345.191 421.766,345.691 420.5,346C 415.5,346.667 410.5,346.667 405.5,346C 402.948,342.525 399.948,340.358 396.5,339.5C 392.075,341.563 387.742,343.729 383.5,346C 378.833,346.667 374.167,346.667 369.5,346C 366.5,342.667 363.5,342.667 360.5,346C 354.167,346.667 347.833,346.667 341.5,346C 339.933,343.259 337.599,342.092 334.5,342.5C 335.527,340.806 336.861,339.473 338.5,338.5C 339.401,337.71 340.068,336.71 340.5,335.5C 341.167,335.167 341.833,334.833 342.5,334.5C 343.159,337.455 343.492,340.455 343.5,343.5C 348.833,343.5 354.167,343.5 359.5,343.5C 360.458,343.047 361.292,342.381 362,341.5C 362.176,338.118 362.676,334.785 363.5,331.5C 365.378,335.594 367.378,339.594 369.5,343.5C 374.833,343.5 380.167,343.5 385.5,343.5C 386.893,339.054 387.893,334.388 388.5,329.5C 389.452,326.305 390.785,323.305 392.5,320.5C 398.382,325.931 401.882,332.597 403,340.5C 403.838,341.999 404.671,342.332 405.5,341.5C 410.87,343.379 416.537,344.045 422.5,343.5C 422.167,341.5 421.833,339.5 421.5,337.5C 421.664,334.813 421.497,332.146 421,329.5C 416.623,316.61 412.623,303.61 409,290.5C 408.327,286.139 407.493,281.806 406.5,277.5C 408.11,266.503 411.61,256.17 417,246.5C 418.696,240.513 420.196,234.513 421.5,228.5 Z"/></g>
<g><path style="opacity:1" fill="#f9a486" d="M 198.5,226.5 C 208.015,226.173 217.348,226.506 226.5,227.5C 216.833,227.5 207.167,227.5 197.5,227.5C 197.5,266.167 197.5,304.833 197.5,343.5C 196.503,326.675 196.17,309.675 196.5,292.5C 196.5,286.833 196.5,281.167 196.5,275.5C 196.5,262.167 196.5,248.833 196.5,235.5C 195.945,231.988 196.612,228.988 198.5,226.5 Z"/></g>
<g><path style="opacity:1" fill="#cb3c54" d="M 294.5,222.5 C 296.565,222.517 298.565,222.85 300.5,223.5C 300.877,225.258 301.544,226.925 302.5,228.5C 304.188,229.521 305.521,230.855 306.5,232.5C 304.51,232.993 304.51,234.16 306.5,236C 305.167,238.667 305.167,241.333 306.5,244C 304.653,246.518 304.32,249.185 305.5,252C 304.891,258.716 303.391,265.216 301,271.5C 299.89,273.037 298.39,273.703 296.5,273.5C 294.958,274.301 293.292,274.634 291.5,274.5C 291.5,273.833 291.167,273.5 290.5,273.5C 288.039,263.449 285.372,253.449 282.5,243.5C 288.425,243.808 294.259,243.475 300,242.5C 300.667,237.833 300.667,233.167 300,228.5C 299.292,227.619 298.458,226.953 297.5,226.5C 290.5,226.5 283.5,226.5 276.5,226.5C 276.5,225.5 276.5,224.5 276.5,223.5C 282.69,223.823 288.69,223.49 294.5,222.5 Z"/></g>
<g><path style="opacity:1" fill="#fe90c1" d="M 160.5,241.5 C 165.833,241.5 171.167,241.5 176.5,241.5C 176.175,249.019 176.508,256.352 177.5,263.5C 177.301,266.941 177.801,270.274 179,273.5C 180.129,275.141 181.629,276.141 183.5,276.5C 183.5,276.833 183.5,277.167 183.5,277.5C 182.837,279.641 182.503,281.975 182.5,284.5C 182.621,287.441 183.287,290.108 184.5,292.5C 183.833,292.5 183.167,292.5 182.5,292.5C 181.5,292.5 180.5,292.5 179.5,292.5C 170.995,291.313 165.162,286.647 162,278.5C 159.412,266.108 158.912,253.774 160.5,241.5 Z"/></g>
<g><path style="opacity:1" fill="#ff5882" d="M 98.5,163.5 C 93.6419,205.036 88.3085,246.37 82.5,287.5C 82.977,274.823 83.6436,262.156 84.5,249.5C 88.9672,225.786 92.4672,201.786 95,177.5C 95.6829,172.56 96.8496,167.893 98.5,163.5 Z"/></g>
<g><path style="opacity:1" fill="#fe8261" d="M 296.5,240.5 C 296.833,240.5 297.167,240.5 297.5,240.5C 291.923,240.856 286.59,241.856 281.5,243.5C 279.533,243.261 277.699,243.594 276,244.5C 275.333,252.5 275.333,260.5 276,268.5C 276.309,269.766 276.809,270.933 277.5,272C 280.836,272.463 284.003,273.296 287,274.5C 288.385,274.486 289.551,274.152 290.5,273.5C 291.167,273.5 291.5,273.833 291.5,274.5C 291.5,275.5 291.5,276.5 291.5,277.5C 284.833,277.5 278.167,277.5 271.5,277.5C 271.5,265.167 271.5,252.833 271.5,240.5C 279.833,240.5 288.167,240.5 296.5,240.5 Z"/></g>
<g><path style="opacity:1" fill="#fbb898" d="M 276.5,226.5 C 283.5,226.5 290.5,226.5 297.5,226.5C 297.5,231.167 297.5,235.833 297.5,240.5C 297.167,240.5 296.833,240.5 296.5,240.5C 296.5,236.167 296.5,231.833 296.5,227.5C 283.167,227.5 269.833,227.5 256.5,227.5C 256.5,266.167 256.5,304.833 256.5,343.5C 256.167,343.5 255.833,343.5 255.5,343.5C 255.5,343.167 255.5,342.833 255.5,342.5C 255.5,341.833 255.5,341.167 255.5,340.5C 255.5,309.5 255.5,278.5 255.5,247.5C 255.5,240.833 255.5,234.167 255.5,227.5C 262.313,226.509 269.313,226.175 276.5,226.5 Z"/></g>
<g><path style="opacity:1" fill="#c94f42" d="M 345.5,224.5 C 346.122,225.627 346.955,226.627 348,227.5C 349.194,233.75 351.194,239.75 354,245.5C 357.048,249.01 360.381,249.343 364,246.5C 365.432,240.574 366.432,234.574 367,228.5C 367.383,227.944 367.883,227.611 368.5,227.5C 367.119,247.155 365.619,266.821 364,286.5C 360.499,291.948 358.165,291.281 357,284.5C 356.166,280.165 355.333,275.832 354.5,271.5C 354.68,270.446 355.013,269.446 355.5,268.5C 352.747,254.822 349.414,241.489 345.5,228.5C 336.895,226.529 327.895,225.862 318.5,226.5C 318.611,225.883 318.944,225.383 319.5,225C 328.16,224.5 336.827,224.334 345.5,224.5 Z"/></g>
<g><path style="opacity:1" fill="#fe8561" d="M 224.5,241.5 C 221.941,241.198 219.607,241.532 217.5,242.5C 217.666,251.506 217.5,260.506 217,269.5C 216.673,273.642 215.839,277.642 214.5,281.5C 213.539,283.265 213.205,285.265 213.5,287.5C 216.5,287.5 219.5,287.5 222.5,287.5C 219.375,288.479 216.042,288.813 212.5,288.5C 212.5,272.5 212.5,256.5 212.5,240.5C 216.702,240.183 220.702,240.517 224.5,241.5 Z"/></g>
<g><path style="opacity:1" fill="#ff8464" d="M 255.5,227.5 C 255.5,234.167 255.5,240.833 255.5,247.5C 254.207,248.842 253.374,250.509 253,252.5C 252.5,265.496 252.333,278.496 252.5,291.5C 249.167,291.5 245.833,291.5 242.5,291.5C 243.864,288.332 244.697,284.999 245,281.5C 245.667,269.167 245.667,256.833 245,244.5C 243.827,237.12 239.994,231.787 233.5,228.5C 235.655,228.372 237.655,228.872 239.5,230C 241.705,232.54 244.205,234.707 247,236.5C 247.473,238.779 248.473,240.779 250,242.5C 251.836,237.989 253.17,233.323 254,228.5C 254.383,227.944 254.883,227.611 255.5,227.5 Z"/></g>
<g><path style="opacity:1" fill="#fe8886" d="M 281.5,243.5 C 281.833,243.5 282.167,243.5 282.5,243.5C 285.372,253.449 288.039,263.449 290.5,273.5C 289.551,274.152 288.385,274.486 287,274.5C 284.003,273.296 280.836,272.463 277.5,272C 276.809,270.933 276.309,269.766 276,268.5C 275.333,260.5 275.333,252.5 276,244.5C 277.699,243.594 279.533,243.261 281.5,243.5 Z"/></g>
<g><path style="opacity:1" fill="#ef583e" d="M 217.5,242.5 C 219.607,241.532 221.941,241.198 224.5,241.5C 226.129,242.625 227.629,243.959 229,245.5C 229.667,257.833 229.667,270.167 229,282.5C 227.809,285.534 225.642,287.201 222.5,287.5C 219.5,287.5 216.5,287.5 213.5,287.5C 213.205,285.265 213.539,283.265 214.5,281.5C 214.801,284.359 216.467,285.693 219.5,285.5C 221.634,285.485 223.634,284.985 225.5,284C 227.419,272.282 227.919,260.449 227,248.5C 225.507,243.846 222.341,241.846 217.5,242.5 Z"/></g>
<g><path style="opacity:1" fill="#e06137" d="M 329.5,240.5 C 331.167,240.5 332.833,240.5 334.5,240.5C 335.615,260.546 337.282,280.546 339.5,300.5C 334.833,300.5 330.167,300.5 325.5,300.5C 326.999,280.512 328.333,260.512 329.5,240.5 Z"/></g>
<g><path style="opacity:1" fill="#f460a5" d="M 160.5,241.5 C 164.97,240.514 169.637,240.181 174.5,240.5C 175.5,240.5 176.5,240.5 177.5,240.5C 177.5,248.167 177.5,255.833 177.5,263.5C 176.508,256.352 176.175,249.019 176.5,241.5C 171.167,241.5 165.833,241.5 160.5,241.5 Z"/></g>
<g><path style="opacity:1" fill="#d8553c" d="M 318.5,228.5 C 314.226,265.691 309.56,302.691 304.5,339.5C 306.088,324.21 307.088,308.876 307.5,293.5C 309.282,273.554 312.282,253.888 316.5,234.5C 316.259,232.102 316.926,230.102 318.5,228.5 Z"/></g>
<g><path style="opacity:1" fill="#e9424f" d="M 194.5,234.5 C 195.167,234.833 195.833,235.167 196.5,235.5C 196.5,248.833 196.5,262.167 196.5,275.5C 195.609,276.11 194.609,276.443 193.5,276.5C 193.219,262.464 193.552,248.464 194.5,234.5 Z"/></g>
<g><path style="opacity:1" fill="#fe4d85" d="M 104.5,257.5 C 111.167,257.5 117.833,257.5 124.5,257.5C 124.021,264.845 125.021,271.845 127.5,278.5C 127.5,281.833 127.5,285.167 127.5,288.5C 125.429,279.72 123.095,270.887 120.5,262C 116.789,261.175 113.122,261.341 109.5,262.5C 106.906,269.864 104.573,277.198 102.5,284.5C 103.167,275.5 103.833,266.5 104.5,257.5 Z"/></g>
<g><path style="opacity:1" fill="#ef5a3e" d="M 255.5,247.5 C 255.5,278.5 255.5,309.5 255.5,340.5C 254.872,324.29 253.872,307.957 252.5,291.5C 252.333,278.496 252.5,265.496 253,252.5C 253.374,250.509 254.207,248.842 255.5,247.5 Z"/></g>
<g><path style="opacity:1" fill="#ff9435" d="M 386.5,228.5 C 387.117,228.611 387.617,228.944 388,229.5C 388.723,234.398 390.056,239.065 392,243.5C 396.36,239.252 399.526,234.252 401.5,228.5C 402.167,228.5 402.5,228.833 402.5,229.5C 396.083,246.834 390.75,264.501 386.5,282.5C 385.5,282.5 384.5,282.5 383.5,282.5C 385.821,264.581 386.821,246.581 386.5,228.5 Z"/></g>
<g><path style="opacity:1" fill="#f048a2" d="M 104.5,257.5 C 111.313,256.509 118.313,256.175 125.5,256.5C 126.167,263.833 126.833,271.167 127.5,278.5C 125.021,271.845 124.021,264.845 124.5,257.5C 117.833,257.5 111.167,257.5 104.5,257.5 Z"/></g>
<g><path style="opacity:1" fill="#eb4e4f" d="M 217.5,242.5 C 222.341,241.846 225.507,243.846 227,248.5C 227.919,260.449 227.419,272.282 225.5,284C 223.634,284.985 221.634,285.485 219.5,285.5C 216.467,285.693 214.801,284.359 214.5,281.5C 215.839,277.642 216.673,273.642 217,269.5C 217.5,260.506 217.666,251.506 217.5,242.5 Z"/></g>
<g><path style="opacity:1" fill="#d65b3d" d="M 369.5,226.5 C 369.5,247.167 369.5,267.833 369.5,288.5C 366.237,297.693 361.903,306.36 356.5,314.5C 352.504,285.876 348.837,257.209 345.5,228.5C 349.414,241.489 352.747,254.822 355.5,268.5C 355.013,269.446 354.68,270.446 354.5,271.5C 355.333,275.832 356.166,280.165 357,284.5C 358.165,291.281 360.499,291.948 364,286.5C 365.619,266.821 367.119,247.155 368.5,227.5C 368.5,226.833 368.833,226.5 369.5,226.5 Z"/></g>
<g><path style="opacity:1" fill="#ff6c79" d="M 127.5,288.5 C 128.1,289.9 129.1,290.9 130.5,291.5C 131.167,292.833 131.833,294.167 132.5,295.5C 130.784,295.371 129.117,295.038 127.5,294.5C 125.752,289.269 123.419,284.269 120.5,279.5C 111.313,275.161 106.479,278.161 106,288.5C 105.215,290.286 104.049,291.786 102.5,293C 96.8333,293.667 91.1667,293.667 85.5,293C 84.944,292.617 84.6107,292.117 84.5,291.5C 90.5,291.5 96.5,291.5 102.5,291.5C 102.5,289.167 102.5,286.833 102.5,284.5C 104.573,277.198 106.906,269.864 109.5,262.5C 113.122,261.341 116.789,261.175 120.5,262C 123.095,270.887 125.429,279.72 127.5,288.5 Z"/></g>
<g><path style="opacity:1" fill="#fe8b97" d="M 183.5,277.5 C 186.833,277.5 190.167,277.5 193.5,277.5C 194.487,282.305 194.821,287.305 194.5,292.5C 191.167,292.5 187.833,292.5 184.5,292.5C 183.287,290.108 182.621,287.441 182.5,284.5C 182.503,281.975 182.837,279.641 183.5,277.5 Z"/></g>
<g><path style="opacity:1" fill="#fe806a" d="M 196.5,275.5 C 196.5,281.167 196.5,286.833 196.5,292.5C 195.833,292.5 195.167,292.5 194.5,292.5C 194.821,287.305 194.487,282.305 193.5,277.5C 193.5,277.167 193.5,276.833 193.5,276.5C 194.609,276.443 195.609,276.11 196.5,275.5 Z"/></g>
<g><path style="opacity:1" fill="#fe9c6a" d="M 127.5,294.5 C 129.117,295.038 130.784,295.371 132.5,295.5C 132.328,296.492 132.662,297.158 133.5,297.5C 133.5,297.833 133.5,298.167 133.5,298.5C 126.329,296.945 119.162,295.278 112,293.5C 103.746,296.377 95.2463,297.21 86.5,296C 85.5842,295.722 84.9175,295.222 84.5,294.5C 90.8421,294.666 97.1754,294.5 103.5,294C 106.295,292.207 108.795,290.04 111,287.5C 114.143,288.406 117.643,289.24 121.5,290C 123.114,292.127 125.114,293.627 127.5,294.5 Z"/></g>
<g><path style="opacity:1" fill="#b61c6b" d="M 179.5,292.5 C 180.5,292.5 181.5,292.5 182.5,292.5C 182.48,294.143 183.147,295.476 184.5,296.5C 183.198,299.708 182.531,303.041 182.5,306.5C 180.112,305.781 178.612,304.115 178,301.5C 176.881,304.948 176.381,308.282 176.5,311.5C 174.695,310.763 173.029,309.763 171.5,308.5C 170.914,308.709 170.414,309.043 170,309.5C 169.16,306.536 168.16,306.203 167,308.5C 166.845,306.144 166.845,303.811 167,301.5C 161.864,298.899 156.364,297.232 150.5,296.5C 144.863,297.305 139.196,297.638 133.5,297.5C 132.662,297.158 132.328,296.492 132.5,295.5C 131.833,294.167 131.167,292.833 130.5,291.5C 136.167,291.5 141.833,291.5 147.5,291.5C 149.594,288.31 151.928,285.31 154.5,282.5C 159.253,285.085 163.586,288.252 167.5,292C 171.462,293.696 175.462,293.863 179.5,292.5 Z"/></g>
<g><path style="opacity:1" fill="#ffa240" d="M 420.5,226.5 C 421.338,226.842 421.672,227.508 421.5,228.5C 420.196,234.513 418.696,240.513 417,246.5C 411.61,256.17 408.11,266.503 406.5,277.5C 407.493,281.806 408.327,286.139 409,290.5C 412.623,303.61 416.623,316.61 421,329.5C 421.497,332.146 421.664,334.813 421.5,337.5C 414.862,317.525 408.528,297.359 402.5,277C 408.939,260.296 414.939,243.463 420.5,226.5 Z"/></g>
<g><path style="opacity:1" fill="#fe9d3c" d="M 369.5,288.5 C 369.5,306.833 369.5,325.167 369.5,343.5C 367.378,339.594 365.378,335.594 363.5,331.5C 362.676,334.785 362.176,338.118 362,341.5C 361.292,342.381 360.458,343.047 359.5,343.5C 358.089,333.879 357.089,324.212 356.5,314.5C 361.903,306.36 366.237,297.693 369.5,288.5 Z"/></g>
<g><path style="opacity:1" fill="#d84f43" d="M 242.5,291.5 C 245.833,291.5 249.167,291.5 252.5,291.5C 253.872,307.957 254.872,324.29 255.5,340.5C 255.5,341.167 255.5,341.833 255.5,342.5C 254.191,340.429 253.525,337.929 253.5,335C 253.128,323.223 252.128,311.556 250.5,300C 247.97,298.578 245.303,298.245 242.5,299C 240.844,300.829 238.844,302.163 236.5,303C 229.601,304.823 222.601,305.989 215.5,306.5C 215.132,313.008 214.465,319.342 213.5,325.5C 213.5,317.833 213.5,310.167 213.5,302.5C 218.032,302.818 222.366,302.485 226.5,301.5C 233.809,301.186 239.142,297.852 242.5,291.5 Z"/></g>
<g><path style="opacity:1" fill="#cb4a48" d="M 316.5,234.5 C 312.282,253.888 309.282,273.554 307.5,293.5C 305.138,308.081 303.138,322.747 301.5,337.5C 300.911,334.163 299.911,330.996 298.5,328C 291.542,326.836 284.542,325.836 277.5,325C 276.654,320.178 275.321,315.344 273.5,310.5C 273.334,305.821 273.501,301.155 274,296.5C 274.374,295.584 274.874,294.75 275.5,294C 282.298,293.055 288.965,292.222 295.5,291.5C 296.486,287.03 296.819,282.363 296.5,277.5C 294.833,277.5 293.167,277.5 291.5,277.5C 291.5,276.5 291.5,275.5 291.5,274.5C 293.292,274.634 294.958,274.301 296.5,273.5C 297.542,275.791 299.042,276.791 301,276.5C 302.167,278.333 303.333,280.167 304.5,282C 302.536,284.518 301.87,287.184 302.5,290C 300.825,291.709 299.158,293.376 297.5,295C 291.181,296.079 285.181,298.079 279.5,301C 278.57,302.194 277.903,303.527 277.5,305C 278.738,307.715 278.738,310.382 277.5,313C 279.833,314.667 281.833,316.667 283.5,319C 283.5,320.333 283.5,321.667 283.5,323C 288.633,324.755 293.8,324.921 299,323.5C 299.836,319.627 300.669,315.793 301.5,312C 299.122,311.026 299.456,310.359 302.5,310C 301.572,309.612 300.905,308.945 300.5,308C 301.473,307.651 302.306,306.818 303,305.5C 303.837,302.635 304.67,299.802 305.5,297C 305.5,291 305.5,285 305.5,279C 306.624,278.161 307.291,276.994 307.5,275.5C 309.194,264.808 311.027,254.141 313,243.5C 313.861,240.269 315.028,237.269 316.5,234.5 Z"/></g>
<g><path style="opacity:1" fill="#eb825e" d="M 226.5,301.5 C 222.366,302.485 218.032,302.818 213.5,302.5C 213.5,310.167 213.5,317.833 213.5,325.5C 213.823,331.69 213.49,337.69 212.5,343.5C 212.5,329.5 212.5,315.5 212.5,301.5C 217.167,301.5 221.833,301.5 226.5,301.5 Z"/></g>
<g><path style="opacity:1" fill="#c0414b" d="M 255.5,342.5 C 255.5,342.833 255.5,343.167 255.5,343.5C 255.833,344.167 256.167,344.833 256.5,345.5C 254.938,345.267 253.605,344.6 252.5,343.5C 251.202,334.137 248.869,325.47 245.5,317.5C 242.689,314.607 239.189,312.94 235,312.5C 228.144,313.348 222.811,316.682 219,322.5C 217.113,329.043 215.946,335.709 215.5,342.5C 215.063,344.074 214.063,345.241 212.5,346C 207.833,346.667 203.167,346.667 198.5,346C 197.584,345.722 196.918,345.222 196.5,344.5C 202.026,344.821 207.36,344.488 212.5,343.5C 213.49,337.69 213.823,331.69 213.5,325.5C 214.465,319.342 215.132,313.008 215.5,306.5C 222.601,305.989 229.601,304.823 236.5,303C 238.844,302.163 240.844,300.829 242.5,299C 245.303,298.245 247.97,298.578 250.5,300C 252.128,311.556 253.128,323.223 253.5,335C 253.525,337.929 254.191,340.429 255.5,342.5 Z"/></g>
<g><path style="opacity:1" fill="#c03e4e" d="M 194.5,295.5 C 194.5,311.167 194.5,326.833 194.5,342.5C 193.206,335.755 191.872,328.922 190.5,322C 190.604,314.895 190.771,307.395 191,299.5C 191.498,297.456 192.665,296.122 194.5,295.5 Z"/></g>
<g><path style="opacity:1" fill="#b63b50" d="M 252.5,343.5 C 250.953,340.44 248.786,337.774 246,335.5C 245.667,335.833 245.333,336.167 245,336.5C 244.464,334.433 244.964,332.599 246.5,331C 244.741,327.896 243.074,324.729 241.5,321.5C 241.709,320.914 242.043,320.414 242.5,320C 236.726,315.501 231.059,315.835 225.5,321C 225.833,321.333 226.167,321.667 226.5,322C 224.621,325.888 221.955,329.221 218.5,332C 218.833,332.333 219.167,332.667 219.5,333C 218.726,335.405 218.226,337.905 218,340.5C 217.292,341.381 216.458,342.047 215.5,342.5C 215.946,335.709 217.113,329.043 219,322.5C 222.811,316.682 228.144,313.348 235,312.5C 239.189,312.94 242.689,314.607 245.5,317.5C 248.869,325.47 251.202,334.137 252.5,343.5 Z"/></g>
<g><path style="opacity:1" fill="#ff9e3b" d="M 405.5,341.5 C 404.671,342.332 403.838,341.999 403,340.5C 401.882,332.597 398.382,325.931 392.5,320.5C 390.785,323.305 389.452,326.305 388.5,329.5C 387.893,334.388 386.893,339.054 385.5,343.5C 385.333,332.162 385.5,320.828 386,309.5C 388,304.833 390,300.167 392,295.5C 396.808,310.683 401.308,326.016 405.5,341.5 Z"/></g>
<g><path style="opacity:1" fill="#9e2062" d="M 176.5,311.5 C 176.894,312.967 177.227,314.467 177.5,316C 176.723,319.93 175.723,323.763 174.5,327.5C 173.844,326.722 173.011,326.056 172,325.5C 166.025,326.477 166.025,327.477 172,328.5C 172.49,329.793 172.657,331.127 172.5,332.5C 169.15,332.665 165.817,332.498 162.5,332C 161.789,330.745 160.956,329.579 160,328.5C 159.735,330.163 160.235,331.663 161.5,333C 159.866,333.494 158.199,333.66 156.5,333.5C 152.933,330.023 149.6,326.356 146.5,322.5C 145.752,320.668 144.752,319.001 143.5,317.5C 142.248,315.999 141.248,314.332 140.5,312.5C 139.737,310.632 138.737,308.965 137.5,307.5C 137.34,305.847 136.674,304.514 135.5,303.5C 135.107,301.716 134.441,300.05 133.5,298.5C 133.5,298.167 133.5,297.833 133.5,297.5C 139.196,297.638 144.863,297.305 150.5,296.5C 156.364,297.232 161.864,298.899 167,301.5C 166.845,303.811 166.845,306.144 167,308.5C 168.16,306.203 169.16,306.536 170,309.5C 170.414,309.043 170.914,308.709 171.5,308.5C 173.029,309.763 174.695,310.763 176.5,311.5 Z"/></g>
<g><path style="opacity:1" fill="#c3444c" d="M 345.5,224.5 C 336.827,224.334 328.16,224.5 319.5,225C 318.944,225.383 318.611,225.883 318.5,226.5C 318.5,227.167 318.5,227.833 318.5,228.5C 316.926,230.102 316.259,232.102 316.5,234.5C 315.028,237.269 313.861,240.269 313,243.5C 311.027,254.141 309.194,264.808 307.5,275.5C 307.291,276.994 306.624,278.161 305.5,279C 305.5,285 305.5,291 305.5,297C 304.67,299.802 303.837,302.635 303,305.5C 302.306,306.818 301.473,307.651 300.5,308C 300.905,308.945 301.572,309.612 302.5,310C 299.456,310.359 299.122,311.026 301.5,312C 300.669,315.793 299.836,319.627 299,323.5C 293.8,324.921 288.633,324.755 283.5,323C 283.5,321.667 283.5,320.333 283.5,319C 281.833,316.667 279.833,314.667 277.5,313C 278.738,310.382 278.738,307.715 277.5,305C 277.903,303.527 278.57,302.194 279.5,301C 285.181,298.079 291.181,296.079 297.5,295C 299.158,293.376 300.825,291.709 302.5,290C 301.87,287.184 302.536,284.518 304.5,282C 303.333,280.167 302.167,278.333 301,276.5C 299.042,276.791 297.542,275.791 296.5,273.5C 298.39,273.703 299.89,273.037 301,271.5C 303.391,265.216 304.891,258.716 305.5,252C 304.32,249.185 304.653,246.518 306.5,244C 305.167,241.333 305.167,238.667 306.5,236C 304.51,234.16 304.51,232.993 306.5,232.5C 309.116,231.52 311.449,230.02 313.5,228C 314.45,225.41 316.116,223.41 318.5,222C 324.167,221.333 329.833,221.333 335.5,222C 339.179,222.026 342.512,222.86 345.5,224.5 Z"/></g>
<g><path style="opacity:1" fill="#cf4b40" d="M 194.5,292.5 C 195.167,292.5 195.833,292.5 196.5,292.5C 196.17,309.675 196.503,326.675 197.5,343.5C 202.5,343.5 207.5,343.5 212.5,343.5C 207.36,344.488 202.026,344.821 196.5,344.5C 195.833,343.833 195.167,343.167 194.5,342.5C 194.5,326.833 194.5,311.167 194.5,295.5C 194.5,294.5 194.5,293.5 194.5,292.5 Z"/></g>
<g><path style="opacity:1" fill="#d75b3c" d="M 342.5,334.5 C 341.833,334.833 341.167,335.167 340.5,335.5C 339.99,331.44 339.156,327.44 338,323.5C 333.181,319.081 329.181,319.748 326,325.5C 324.542,331.314 323.042,336.981 321.5,342.5C 321.866,333.143 322.533,323.81 323.5,314.5C 329.5,314.5 335.5,314.5 341.5,314.5C 341.954,321.159 342.287,327.826 342.5,334.5 Z"/></g>
<g><path style="opacity:1" fill="#a63054" d="M 182.5,307.5 C 183.122,308.627 183.955,309.627 185,310.5C 185.311,317.07 185.978,323.736 187,330.5C 188.797,334.875 190.797,339.208 193,343.5C 193.779,344.728 194.779,345.728 196,346.5C 202.615,348.02 209.115,348.187 215.5,347C 220.702,341.404 225.535,335.57 230,329.5C 231.333,328.833 232.667,328.167 234,327.5C 235.579,329.041 237.413,330.208 239.5,331C 238.701,332.749 239.368,334.082 241.5,335C 241.167,335.333 240.833,335.667 240.5,336C 242.831,338.944 245.164,341.944 247.5,345C 257.178,350.781 267.678,353.947 279,354.5C 290.734,353.845 302.568,353.845 314.5,354.5C 311.103,355.198 307.603,355.865 304,356.5C 303.667,356.167 303.333,355.833 303,355.5C 291.908,356.695 280.742,357.195 269.5,357C 256.66,355.168 246.16,349.335 238,339.5C 237.667,339.833 237.333,340.167 237,340.5C 236.311,339.643 235.478,338.977 234.5,338.5C 229.499,339.228 225.165,341.728 221.5,346C 213.646,350.549 205.313,351.549 196.5,349C 193.344,346.843 190.511,344.343 188,341.5C 187.378,339.269 186.211,337.435 184.5,336C 185.167,335.667 185.833,335.333 186.5,335C 185.544,332.123 184.211,329.456 182.5,327C 183.308,326.692 183.975,326.192 184.5,325.5C 182.77,323.207 181.437,320.707 180.5,318C 180.416,314.474 181.083,310.974 182.5,307.5 Z"/></g>
<g><path style="opacity:1" fill="#e05f3b" d="M 295.5,291.5 C 288.965,292.222 282.298,293.055 275.5,294C 274.874,294.75 274.374,295.584 274,296.5C 273.501,301.155 273.334,305.821 273.5,310.5C 273.334,315.511 273.501,320.511 274,325.5C 274.5,326 275,326.5 275.5,327C 282.308,327.883 288.975,328.717 295.5,329.5C 287.5,329.5 279.5,329.5 271.5,329.5C 271.5,316.833 271.5,304.167 271.5,291.5C 279.5,291.5 287.5,291.5 295.5,291.5 Z"/></g>
<g><path style="opacity:1" fill="#96275a" d="M 174.5,327.5 C 178.186,334.694 182.52,341.528 187.5,348C 193.601,352.164 200.435,354.33 208,354.5C 217.07,352.987 225.903,350.654 234.5,347.5C 244.384,352.774 255.051,357.274 266.5,361C 279.388,361.585 292.055,362.085 304.5,362.5C 303.833,362.5 303.5,362.833 303.5,363.5C 291.779,368.41 279.779,372.076 267.5,374.5C 245.871,377.504 224.871,375.171 204.5,367.5C 188.243,360.703 173.577,351.369 160.5,339.5C 159.167,337.5 157.833,335.5 156.5,333.5C 158.199,333.66 159.866,333.494 161.5,333C 160.235,331.663 159.735,330.163 160,328.5C 160.956,329.579 161.789,330.745 162.5,332C 165.817,332.498 169.15,332.665 172.5,332.5C 172.657,331.127 172.49,329.793 172,328.5C 166.025,327.477 166.025,326.477 172,325.5C 173.011,326.056 173.844,326.722 174.5,327.5 Z"/></g>
<g><path style="opacity:1" fill="#a02c57" d="M 182.5,306.5 C 182.5,306.833 182.5,307.167 182.5,307.5C 181.083,310.974 180.416,314.474 180.5,318C 181.437,320.707 182.77,323.207 184.5,325.5C 183.975,326.192 183.308,326.692 182.5,327C 184.211,329.456 185.544,332.123 186.5,335C 185.833,335.333 185.167,335.667 184.5,336C 186.211,337.435 187.378,339.269 188,341.5C 190.511,344.343 193.344,346.843 196.5,349C 205.313,351.549 213.646,350.549 221.5,346C 225.165,341.728 229.499,339.228 234.5,338.5C 235.478,338.977 236.311,339.643 237,340.5C 237.333,340.167 237.667,339.833 238,339.5C 246.16,349.335 256.66,355.168 269.5,357C 280.742,357.195 291.908,356.695 303,355.5C 303.333,355.833 303.667,356.167 304,356.5C 307.603,355.865 311.103,355.198 314.5,354.5C 315.791,354.263 316.791,354.596 317.5,355.5C 313.299,358.1 308.966,360.434 304.5,362.5C 292.055,362.085 279.388,361.585 266.5,361C 255.051,357.274 244.384,352.774 234.5,347.5C 225.903,350.654 217.07,352.987 208,354.5C 200.435,354.33 193.601,352.164 187.5,348C 182.52,341.528 178.186,334.694 174.5,327.5C 175.723,323.763 176.723,319.93 177.5,316C 177.227,314.467 176.894,312.967 176.5,311.5C 176.381,308.282 176.881,304.948 178,301.5C 178.612,304.115 180.112,305.781 182.5,306.5 Z"/></g>
<g><path style="opacity:1" fill="#c84d41" d="M 307.5,293.5 C 307.088,308.876 306.088,324.21 304.5,339.5C 304.5,340.833 304.5,342.167 304.5,343.5C 310.358,343.822 316.025,343.489 321.5,342.5C 323.042,336.981 324.542,331.314 326,325.5C 329.181,319.748 333.181,319.081 338,323.5C 339.156,327.44 339.99,331.44 340.5,335.5C 340.068,336.71 339.401,337.71 338.5,338.5C 338.489,336.983 337.823,335.816 336.5,335C 333.833,334.333 331.167,334.333 328.5,335C 326.004,337.656 324.004,340.656 322.5,344C 315.273,347.33 308.106,347.163 301,343.5C 299.51,344.317 298.01,345.15 296.5,346C 282.994,346.827 269.66,346.66 256.5,345.5C 256.167,344.833 255.833,344.167 255.5,343.5C 255.833,343.5 256.167,343.5 256.5,343.5C 270.167,343.5 283.833,343.5 297.5,343.5C 298.103,338.381 297.436,333.715 295.5,329.5C 288.975,328.717 282.308,327.883 275.5,327C 275,326.5 274.5,326 274,325.5C 273.501,320.511 273.334,315.511 273.5,310.5C 275.321,315.344 276.654,320.178 277.5,325C 284.542,325.836 291.542,326.836 298.5,328C 299.911,330.996 300.911,334.163 301.5,337.5C 303.138,322.747 305.138,308.081 307.5,293.5 Z"/></g>
<g><path style="opacity:1" fill="#b33e4b" d="M 338.5,338.5 C 336.861,339.473 335.527,340.806 334.5,342.5C 331.786,345.215 328.786,347.549 325.5,349.5C 317.306,348.549 309.139,348.216 301,348.5C 285.745,351.579 270.579,351.079 255.5,347C 253.574,346.578 252.574,345.411 252.5,343.5C 253.605,344.6 254.938,345.267 256.5,345.5C 269.66,346.66 282.994,346.827 296.5,346C 298.01,345.15 299.51,344.317 301,343.5C 308.106,347.163 315.273,347.33 322.5,344C 324.004,340.656 326.004,337.656 328.5,335C 331.167,334.333 333.833,334.333 336.5,335C 337.823,335.816 338.489,336.983 338.5,338.5 Z"/></g>
<g><path style="opacity:1" fill="#ad3652" d="M 182.5,292.5 C 183.167,292.5 183.833,292.5 184.5,292.5C 187.833,292.5 191.167,292.5 194.5,292.5C 194.5,293.5 194.5,294.5 194.5,295.5C 192.665,296.122 191.498,297.456 191,299.5C 190.771,307.395 190.604,314.895 190.5,322C 191.872,328.922 193.206,335.755 194.5,342.5C 195.167,343.167 195.833,343.833 196.5,344.5C 196.918,345.222 197.584,345.722 198.5,346C 203.167,346.667 207.833,346.667 212.5,346C 214.063,345.241 215.063,344.074 215.5,342.5C 216.458,342.047 217.292,341.381 218,340.5C 218.226,337.905 218.726,335.405 219.5,333C 219.167,332.667 218.833,332.333 218.5,332C 221.955,329.221 224.621,325.888 226.5,322C 226.167,321.667 225.833,321.333 225.5,321C 231.059,315.835 236.726,315.501 242.5,320C 242.043,320.414 241.709,320.914 241.5,321.5C 243.074,324.729 244.741,327.896 246.5,331C 244.964,332.599 244.464,334.433 245,336.5C 245.333,336.167 245.667,335.833 246,335.5C 248.786,337.774 250.953,340.44 252.5,343.5C 252.574,345.411 253.574,346.578 255.5,347C 270.579,351.079 285.745,351.579 301,348.5C 309.139,348.216 317.306,348.549 325.5,349.5C 323.5,351.167 321.5,352.833 319.5,354.5C 318.833,354.833 318.167,355.167 317.5,355.5C 316.791,354.596 315.791,354.263 314.5,354.5C 302.568,353.845 290.734,353.845 279,354.5C 267.678,353.947 257.178,350.781 247.5,345C 245.164,341.944 242.831,338.944 240.5,336C 240.833,335.667 241.167,335.333 241.5,335C 239.368,334.082 238.701,332.749 239.5,331C 237.413,330.208 235.579,329.041 234,327.5C 232.667,328.167 231.333,328.833 230,329.5C 225.535,335.57 220.702,341.404 215.5,347C 209.115,348.187 202.615,348.02 196,346.5C 194.779,345.728 193.779,344.728 193,343.5C 190.797,339.208 188.797,334.875 187,330.5C 185.978,323.736 185.311,317.07 185,310.5C 183.955,309.627 183.122,308.627 182.5,307.5C 182.5,307.167 182.5,306.833 182.5,306.5C 182.531,303.041 183.198,299.708 184.5,296.5C 183.147,295.476 182.48,294.143 182.5,292.5 Z"/></g>
</svg>
